<?xml version="1.0" encoding="utf-8"?>
<!-- Generator: Adobe Illustrator 21.0.0, SVG Export Plug-In . SVG Version: 6.00 Build 0)  -->
<svg version="1.1" id="Layer_1" xmlns="http://www.w3.org/2000/svg" xmlns:xlink="http://www.w3.org/1999/xlink" x="0px" y="0px"
	 viewBox="0 0 150 150" style="enable-background:new 0 0 150 150;" xml:space="preserve">
<style type="text/css">
	.st0{fill:url(#SVGID_1_);}
	.st1{fill:url(#SVGID_2_);}
	.st2{fill:url(#SVGID_3_);}
	.st3{fill:#AFAFAF;}
	.st4{fill:url(#SVGID_4_);}
	.st5{fill:#E0E0E0;}
	.st6{fill:#C0C0C0;}
	.st7{fill:url(#SVGID_5_);}
	.st8{fill:url(#SVGID_6_);}
	.st9{fill:url(#SVGID_7_);}
	.st10{fill:#CBCBCB;}
	.st11{fill:#B2B2B2;}
	.st12{fill:url(#SVGID_8_);}
	.st13{fill:url(#SVGID_9_);}
	.st14{fill:#CDCDCD;}
	.st15{fill:url(#SVGID_10_);}
	.st16{fill:#CACACA;}
	.st17{fill:url(#SVGID_11_);}
	.st18{fill:url(#SVGID_12_);}
	.st19{fill:url(#SVGID_13_);}
	.st20{fill:url(#SVGID_14_);}
	.st21{fill:url(#SVGID_15_);}
	.st22{fill:#DCDCDC;}
	.st23{fill:#B9B9B9;}
	.st24{fill:#BBBBBB;}
	.st25{fill:#B8B8B8;}
	.st26{fill:url(#SVGID_16_);}
	.st27{fill:#FFFFFF;}
	.st28{fill:url(#SVGID_17_);}
	.st29{fill:url(#SVGID_18_);}
	.st30{fill:url(#SVGID_19_);}
</style>
<linearGradient id="SVGID_1_" gradientUnits="userSpaceOnUse" x1="87.9785" y1="148.6047" x2="61.9586" y2="1.0386">
	<stop  offset="0" style="stop-color:#165096"/>
	<stop  offset="1" style="stop-color:#0D82CA"/>
</linearGradient>
<circle class="st0" cx="75" cy="75" r="75"/>
<linearGradient id="SVGID_2_" gradientUnits="userSpaceOnUse" x1="-166.1584" y1="-92.955" x2="-165.7674" y2="-92.955" gradientTransform="matrix(0 149.735 -149.735 0 -13851.3457 24931.0371)">
	<stop  offset="0" style="stop-color:#D8D8D8"/>
	<stop  offset="0.35" style="stop-color:#FFFFFF"/>
	<stop  offset="0.35" style="stop-color:#FFFFFF"/>
	<stop  offset="0.846" style="stop-color:#CACACA"/>
	<stop  offset="0.846" style="stop-color:#CACACA"/>
	<stop  offset="1" style="stop-color:#CACACA"/>
</linearGradient>
<path class="st1" d="M56.3,60.6c4.4,13.5,6.1,37.6,19,37.6c1,0,2-0.1,3-0.3C66.5,95.1,65.1,71.3,58,59C57.4,59.5,56.9,60,56.3,60.6"
	/>
<linearGradient id="SVGID_3_" gradientUnits="userSpaceOnUse" x1="-166.1394" y1="-92.9083" x2="-165.7494" y2="-92.9083" gradientTransform="matrix(0 153.551 -153.551 0 -14196.6494 25560.7598)">
	<stop  offset="0" style="stop-color:#C4C4C4"/>
	<stop  offset="0.36" style="stop-color:#F6F6F6"/>
	<stop  offset="0.36" style="stop-color:#F6F6F6"/>
	<stop  offset="0.846" style="stop-color:#E6E6E6"/>
	<stop  offset="0.846" style="stop-color:#E6E6E6"/>
	<stop  offset="1" style="stop-color:#E6E6E6"/>
</linearGradient>
<path class="st2" d="M58,59c7.2,12.3,8.6,36.2,20.3,38.9c0.9-0.2,1.8-0.4,2.8-0.7C70.5,92,67.6,68.8,59.5,57.7
	C59,58.1,58.5,58.5,58,59"/>
<path class="st3" d="M68.3,51.6c-1,0-2,0.1-3,0.3c-2.6,0.5-5.3,1.6-7.9,3.3c0.7,0.7,1.4,1.5,2.1,2.4c2.7-2.3,5.4-3.9,8.1-4.9
	c1-0.4,2-0.7,3-0.8C69.9,51.7,69.1,51.6,68.3,51.6"/>
<linearGradient id="SVGID_4_" gradientUnits="userSpaceOnUse" x1="-165.2232" y1="-91.0124" x2="-164.8332" y2="-91.0124" gradientTransform="matrix(0 -122.178 122.178 0 11201.2725 -20089.8965)">
	<stop  offset="0" style="stop-color:#BDBDBD"/>
	<stop  offset="0.5" style="stop-color:#FFFFFF"/>
	<stop  offset="1" style="stop-color:#FFFFFF;stop-opacity:0.42"/>
</linearGradient>
<path class="st4" d="M89.3,92.4c1.1-0.9,2.2-1.8,3.2-2.8C88,76.1,86.4,51.6,73.4,51.6c-0.9,0-1.9,0.1-2.8,0.3
	C82.4,54.8,84,80.6,89.3,92.4"/>
<path class="st5" d="M70.6,51.9c-0.7-0.2-1.5-0.3-2.3-0.3l5.1,0C72.5,51.6,71.5,51.7,70.6,51.9"/>
<path class="st6" d="M89,95.2c-0.5-0.5-1-1-1.5-1.6c-2.2,1.5-4.4,2.7-6.5,3.5c0.8,0.4,1.6,0.7,2.4,0.8c0.7,0.1,1.4,0.2,2.1,0.2
	c2.4,0,4.4-0.3,6-1.1C90.6,96.6,89.8,96,89,95.2"/>
<linearGradient id="SVGID_5_" gradientUnits="userSpaceOnUse" x1="-166.0718" y1="-92.7932" x2="-165.6808" y2="-92.7932" gradientTransform="matrix(0 159.425 -159.425 0 -14715.1406 26519.6348)">
	<stop  offset="0" style="stop-color:#BFBFBF"/>
	<stop  offset="0.4" style="stop-color:#F6F6F6"/>
	<stop  offset="0.4" style="stop-color:#F6F6F6"/>
	<stop  offset="0.846" style="stop-color:#DADADA"/>
	<stop  offset="0.846" style="stop-color:#DADADA"/>
	<stop  offset="1" style="stop-color:#DADADA"/>
</linearGradient>
<path class="st7" d="M67.6,52.7c10.6,5.5,11.5,30.7,20,40.9c0.6-0.4,1.1-0.8,1.7-1.3C84,80.6,82.5,54.8,70.6,51.9
	C69.6,52.1,68.6,52.4,67.6,52.7"/>
<linearGradient id="SVGID_6_" gradientUnits="userSpaceOnUse" x1="-166.0725" y1="-92.7873" x2="-165.6815" y2="-92.7873" gradientTransform="matrix(0 169.528 -169.528 0 -15656.5264 28198.0684)">
	<stop  offset="0" style="stop-color:#A0A0A0"/>
	<stop  offset="0.39" style="stop-color:#D2D2D2"/>
	<stop  offset="0.39" style="stop-color:#D2D2D2"/>
	<stop  offset="0.78" style="stop-color:#ADADAD"/>
	<stop  offset="0.78" style="stop-color:#ADADAD"/>
	<stop  offset="1" style="stop-color:#ADADAD"/>
</linearGradient>
<path class="st8" d="M59.5,57.7C67.6,68.8,70.5,92,81,97.1c2.2-0.8,4.3-1.9,6.5-3.5c-8.5-10.2-9.4-35.3-20-40.9
	C64.9,53.8,62.2,55.4,59.5,57.7"/>
<linearGradient id="SVGID_7_" gradientUnits="userSpaceOnUse" x1="836.137" y1="1966.2267" x2="838.4542" y2="1966.2267" gradientTransform="matrix(4.038 0 0 4.038 -3329.8931 -7875.2192)">
	<stop  offset="0" style="stop-color:#FFFFFF;stop-opacity:0.698"/>
	<stop  offset="1" style="stop-color:#ECECEC"/>
</linearGradient>
<path class="st9" d="M51.1,60.2c-1.3,2.9-2.6,6.7-4.2,11.6c3.1-4.4,6.3-8.2,9.4-11.3c-0.4-1.3-0.9-2.5-1.4-3.6
	C53.6,57.9,52.4,59,51.1,60.2"/>
<path class="st10" d="M56,56.1c-0.4,0.3-0.8,0.5-1.1,0.8c0.5,1.1,1,2.3,1.4,3.6c0.6-0.6,1.1-1.1,1.7-1.6C57.4,57.9,56.7,57,56,56.1"
	/>
<path class="st11" d="M57.4,55.2c-0.4,0.3-0.9,0.6-1.3,0.9c0.7,0.9,1.3,1.8,1.9,2.8c0.5-0.4,1-0.9,1.5-1.3
	C58.8,56.8,58.1,56,57.4,55.2"/>
<linearGradient id="SVGID_8_" gradientUnits="userSpaceOnUse" x1="-165.2171" y1="-91.4557" x2="-164.8271" y2="-91.4557" gradientTransform="matrix(0 -119.018 119.018 0 11002.083 -19568.3066)">
	<stop  offset="0" style="stop-color:#BEBEBE"/>
	<stop  offset="0.6" style="stop-color:#FFFFFF;stop-opacity:0.549"/>
	<stop  offset="1" style="stop-color:#FFFFFF;stop-opacity:0.235"/>
</linearGradient>
<path class="st12" d="M129.8,50.6c-6,23.1-18.5,41.7-29,46.4h0l-0.6,0.2l-0.1,0l-0.2,0.1l-0.1,0l-0.3,0.1l-0.1,0l-0.1,0l-0.1,0
	l-0.1,0l-0.2,0.1l-0.1,0l-0.2,0l-0.1,0l-0.2,0l-0.2,0c0.5,0.2,1,0.3,1.5,0.3c10,0,20-17.9,36.6-47.6L129.8,50.6
	C129.8,50.6,129.8,50.6,129.8,50.6z"/>
<linearGradient id="SVGID_9_" gradientUnits="userSpaceOnUse" x1="827.914" y1="1968.9767" x2="836.5099" y2="1968.9767" gradientTransform="matrix(4.038 0 0 4.038 -3329.8931 -7875.2192)">
	<stop  offset="0" style="stop-color:#E0E0E0;stop-opacity:0.247"/>
	<stop  offset="1" style="stop-color:#E0E0E0"/>
</linearGradient>
<path class="st13" d="M44.8,52.6L44.8,52.6L44.8,52.6L44.8,52.6l0.2-0.1l0,0l0,0l0.2-0.1h0l0.4-0.1l0.1,0l0.2,0l0.1,0l0.2,0l0.1,0
	l0.5-0.1l0.1,0l0.2,0l0.1,0l0.2,0h0l0.3-0.1h0.1l0.2,0l0.1,0l0.1,0l0.1,0l0.4,0c-0.3,0-0.7-0.1-1.1-0.1c-11.2,0-26.7,20.8-33.6,47.8
	h1.3c2.2-4,4.2-7.7,6.1-11.3C26,69,35.9,56,44.8,52.6"/>
<path class="st14" d="M51.1,60.2c1.3-1.2,2.6-2.3,3.8-3.3c-0.3-0.6-0.6-1.2-0.9-1.8C53,56.4,52,58.1,51.1,60.2"/>
<path class="st14" d="M52,52.7c0.7,0.6,1.4,1.5,2,2.5c0.2-0.2,0.4-0.4,0.6-0.6c-0.8-0.8-1.7-1.4-2.7-1.9L52,52.7L52,52.7"/>
<linearGradient id="SVGID_10_" gradientUnits="userSpaceOnUse" x1="-165.2251" y1="-90.3829" x2="-164.8351" y2="-90.3829" gradientTransform="matrix(0 -121.865 121.865 0 11047.4629 -20038.4609)">
	<stop  offset="0" style="stop-color:#E0E0E0"/>
	<stop  offset="1" style="stop-color:#F2F2F2"/>
</linearGradient>
<path class="st15" d="M21.1,88.1c10.2-19.7,15.1-32.2,23.6-35.6C35.9,56,26,69,21.1,88.1"/>
<path class="st16" d="M54.6,54.5c-0.2,0.2-0.4,0.4-0.6,0.6c0.3,0.5,0.6,1.1,0.9,1.8c0.4-0.3,0.8-0.6,1.1-0.8
	C55.6,55.5,55.1,55,54.6,54.5"/>
<linearGradient id="SVGID_11_" gradientUnits="userSpaceOnUse" x1="-165.2012" y1="-90.3735" x2="-164.8102" y2="-90.3735" gradientTransform="matrix(0 -118.46 118.46 0 10741.584 -19472.7832)">
	<stop  offset="0" style="stop-color:#E0E0E0"/>
	<stop  offset="1" style="stop-color:#E0E0E0;stop-opacity:0.549"/>
</linearGradient>
<path class="st17" d="M25.8,99.3l-0.2,0h0l-0.2,0h0l-0.4,0h0c10.4-0.3,15.1-5.5,17.4-13c1.8-5.7,3.3-10.5,4.5-14.5
	c-4.3,6.1-8.7,13.4-13.1,21.5C31.7,97.3,28.5,99,25.8,99.3"/>
<linearGradient id="SVGID_12_" gradientUnits="userSpaceOnUse" x1="-165.0157" y1="-90.1191" x2="-164.6247" y2="-90.1191" gradientTransform="matrix(0 -100.1 100.1 0 9059.3516 -16418.6992)">
	<stop  offset="0" style="stop-color:#B4B4B4"/>
	<stop  offset="0.5" style="stop-color:#E0E0E0"/>
	<stop  offset="0.5" style="stop-color:#E0E0E0"/>
	<stop  offset="0.918" style="stop-color:#FFFFFF"/>
	<stop  offset="1" style="stop-color:#FFFFFF"/>
</linearGradient>
<path class="st18" d="M25.8,99.3c2.8-0.4,6-2,8.1-5.9c4.4-8.2,8.7-15.4,13.1-21.5c1.6-4.9,2.9-8.7,4.2-11.6
	C42.4,68.5,33.8,82.1,25.8,99.3"/>
<path class="st5" d="M21.1,88.1c-1.8,3.5-3.8,7.3-6.1,11.3H19C19.5,95.5,20.2,91.7,21.1,88.1"/>
<linearGradient id="SVGID_13_" gradientUnits="userSpaceOnUse" x1="-165.4454" y1="-90.1874" x2="-165.0554" y2="-90.1874" gradientTransform="matrix(-19.138 -108.537 108.537 -19.138 6662.2949 -19586.1973)">
	<stop  offset="0" style="stop-color:#ACACAC"/>
	<stop  offset="1" style="stop-color:#CDCDCD"/>
</linearGradient>
<path class="st19" d="M48.1,51.7L48.1,51.7l-0.2,0l-0.1,0l-0.2,0l-0.1,0l-0.3,0.1h0l-0.2,0l-0.1,0l-0.2,0l-0.1,0l-0.5,0.1l-0.1,0
	l-0.2,0l-0.1,0l-0.2,0l-0.1,0l-0.4,0.1l-0.2,0.1l-0.1,0l-0.2,0.1l-0.1,0c-8.6,3.4-13.4,15.9-23.6,35.6c-0.9,3.6-1.6,7.3-2.2,11.3
	h0.5l3.8,0H25l0.4,0h0l0.2,0h0l0.2,0c8-17.2,16.7-30.9,25.3-39.1c1-2.2,1.9-3.8,2.9-5c-0.6-1-1.3-1.9-2-2.5l0,0l-0.1-0.1l-0.1-0.1
	l-0.1-0.1l-0.1-0.1l-0.1,0l-0.2-0.1l-0.1,0l-0.2-0.1l-0.1,0l-0.2-0.1h0l-0.3-0.1l-0.1,0L50,52l-0.1,0c-0.2,0-0.4-0.1-0.6-0.1l-0.1,0
	l-0.2,0l0,0l-0.3,0h-0.1l-0.2,0L48.1,51.7"/>
<linearGradient id="SVGID_14_" gradientUnits="userSpaceOnUse" x1="-164.9886" y1="-90.6289" x2="-164.5986" y2="-90.6289" gradientTransform="matrix(0 -56.721 56.721 0 5249.8145 -9285.5479)">
	<stop  offset="0" style="stop-color:#E0E0E0"/>
	<stop  offset="0.874" style="stop-color:#D7D7D7"/>
	<stop  offset="1" style="stop-color:#D7D7D7"/>
</linearGradient>
<path class="st20" d="M106.3,63.4c-2,6.3-3.6,11.5-5,15.8c5.4-7.4,10.7-16.8,15.8-27.6C111.2,53.5,108.1,57.7,106.3,63.4"/>
<linearGradient id="SVGID_15_" gradientUnits="userSpaceOnUse" x1="-166.227" y1="-92.4312" x2="-165.837" y2="-92.4312" gradientTransform="matrix(-23.063 130.795 -130.795 -23.063 -15803.5947 19658.7246)">
	<stop  offset="0" style="stop-color:#F2F2F2;stop-opacity:0.329"/>
	<stop  offset="0.962" style="stop-color:#D2D2D2"/>
	<stop  offset="0.962" style="stop-color:#D2D2D2"/>
	<stop  offset="1" style="stop-color:#D2D2D2"/>
</linearGradient>
<path class="st21" d="M101.5,96.6c-0.3,0.1-0.6,0.3-0.8,0.4c10.5-4.7,23-23.3,29-46.4h-1.2C114.7,75.2,110.3,91.7,101.5,96.6"/>
<path class="st22" d="M94.7,94.6c2.3-2.8,4.1-7.5,6.7-15.4c-2.9,4-5.9,7.5-8.8,10.3l0,0C93.1,91.5,93.9,93.2,94.7,94.6"/>
<path class="st6" d="M94.7,94.6c-0.8,0.9-1.6,1.7-2.5,2.2c-0.2,0.1-0.4,0.2-0.6,0.3c1,0.5,2,0.9,3.2,1l0.5,0h0l0.3,0h0.9l0.1,0
	l0.2,0h0.1l0.2,0h0l0.1,0l0.2,0h0.1l0.2,0h0l0.5-0.1C96.8,97.4,95.6,96.2,94.7,94.6"/>
<path class="st23" d="M75.3,98.2c1,0,2-0.1,3-0.3c0.9-0.2,1.8-0.4,2.8-0.7c0.8,0.4,1.6,0.7,2.4,0.8c0.7,0.1,1.4,0.2,2.1,0.2
	L75.3,98.2L75.3,98.2z"/>
<path class="st23" d="M85.6,98.2c2.4,0,4.4-0.3,6-1.1c1,0.5,2,0.9,3.2,1l0.5,0h0l0.3,0h0.3H85.6z"/>
<path class="st24" d="M95.9,98.2h0.6l0.1,0l0.2,0h0.1l0.2,0h0l0.1,0l0.2,0l0.1,0l0.2,0h0l0.5-0.1c0.5,0.2,1,0.3,1.5,0.3L95.9,98.2
	C95.9,98.2,95.9,98.2,95.9,98.2z"/>
<path class="st25" d="M92.5,89.5L92.5,89.5c-1.1,1-2.2,2-3.2,2.8c-0.6,0.4-1.1,0.9-1.7,1.3c0.5,0.6,1,1.1,1.5,1.6
	c0.8,0.7,1.6,1.4,2.5,1.9c0.2-0.1,0.4-0.2,0.6-0.3c0.9-0.5,1.7-1.3,2.5-2.2C93.9,93.2,93.2,91.5,92.5,89.5"/>
<linearGradient id="SVGID_16_" gradientUnits="userSpaceOnUse" x1="-166.1761" y1="-92.604" x2="-165.7861" y2="-92.604" gradientTransform="matrix(0 123.742 -123.742 0 -11347.4023 20613.4707)">
	<stop  offset="0" style="stop-color:#D7D7D7"/>
	<stop  offset="0.5" style="stop-color:#D4D4D4"/>
	<stop  offset="1" style="stop-color:#A8A8A8"/>
</linearGradient>
<path class="st26" d="M124.7,50.6h-6.1l-1,0l-0.5,1c-5.1,10.8-10.4,20.1-15.8,27.6c-2.5,7.8-4.4,12.6-6.7,15.4
	c1,1.7,2.1,2.8,3.5,3.3l0.1,0h0l0.1,0l0.2,0l0.1,0l0.2,0l0.1,0l0.2-0.1l0.1,0l0.1,0l0.1,0l0.1,0l0.3-0.1l0.1,0l0.2-0.1l0.1,0
	l0.6-0.2h0c0.3-0.1,0.5-0.3,0.8-0.4c8.8-4.9,13.2-21.4,27-46L124.7,50.6C124.7,50.6,124.7,50.6,124.7,50.6z"/>
<path class="st27" d="M48.4,51.7L48.4,51.7l0.2,0h0.1l0.3,0l0,0l0.2,0l0.1,0l0.6,0.1l0.1,0l0.2,0.1l0.1,0l0.3,0.1l0,0l0.2,0.1l0.1,0
	l0.2,0.1l0.1,0l0.2,0.1l0.1,0l0.1,0.1l0.1,0.1l0.1,0.1c1,0.5,1.9,1.1,2.7,1.9c0.3-0.3,0.6-0.6,1-0.9c-1.8-1.3-3.9-2-6.3-2
	C49,51.7,48.7,51.7,48.4,51.7"/>
<path class="st27" d="M54.6,54.5c0.5,0.5,1,1,1.5,1.6c0.4-0.3,0.9-0.6,1.3-0.9c-0.6-0.6-1.2-1.1-1.8-1.6
	C55.2,53.9,54.9,54.2,54.6,54.5"/>
<g transform="matrix(5.048 0 0 -5.048 -9064.26 2270.61)">
	
		<linearGradient id="SVGID_17_" gradientUnits="userSpaceOnUse" x1="2108.4514" y1="423.1679" x2="2108.8416" y2="423.1679" gradientTransform="matrix(143.8831 -59.6775 -59.6775 -143.8831 -276312.1875 187153.9844)">
		<stop  offset="0" style="stop-color:#FFFFFF"/>
		<stop  offset="0.703" style="stop-color:#FFFFFF"/>
		<stop  offset="1" style="stop-color:#FFFFFF"/>
	</linearGradient>
	<path class="st28" d="M1805.2,439.6l0.2,0c0.5,0,0.9-0.1,1.2-0.4c0.4,0.3,0.8,0.4,1.5,0.4h-3.1L1805.2,439.6"/>
</g>
<g transform="matrix(5.048 0 0 -5.048 -9064.26 2270.61)">
	
		<linearGradient id="SVGID_18_" gradientUnits="userSpaceOnUse" x1="2108.5127" y1="423.3285" x2="2108.9026" y2="423.3285" gradientTransform="matrix(113.6406 51.5148 51.5148 -113.6406 -259613.6406 -60073.5547)">
		<stop  offset="0" style="stop-color:#FFFFFF"/>
		<stop  offset="1" style="stop-color:#FFFFFF"/>
	</linearGradient>
	<path class="st29" d="M1808,439.6c-0.6,0-1.1-0.1-1.5-0.4c0.1-0.1,0.2-0.2,0.4-0.3c0.5,0.3,1.1,0.6,1.6,0.7c0.2,0,0.4,0.1,0.6,0.1
		L1808,439.6L1808,439.6L1808,439.6z"/>
</g>
<linearGradient id="SVGID_19_" gradientUnits="userSpaceOnUse" x1="-166.2162" y1="-92.7" x2="-165.8262" y2="-92.7" gradientTransform="matrix(0 121.032 -121.032 0 -11114.6084 20170.6113)">
	<stop  offset="0" style="stop-color:#EBEBEB"/>
	<stop  offset="1" style="stop-color:#F5F5F5;stop-opacity:0"/>
</linearGradient>
<path class="st30" d="M101.4,79.2c1.4-4.3,3-9.5,5-15.8c1.8-5.7,4.9-9.9,10.8-11.8l0.5-1c-9.6,0.6-14.1,5.5-16.4,12.7
	c-4,12.7-6.4,20.9-8.7,26.1C95.5,86.7,98.4,83.2,101.4,79.2"/>
</svg>
