<?xml version="1.0" ?><!DOCTYPE svg  PUBLIC '-//W3C//DTD SVG 1.1//EN'  'http://www.w3.org/Graphics/SVG/1.1/DTD/svg11.dtd'><svg enable-background="new 0 0 50 50" id="Layer_1" version="1.1" viewBox="0 0 50 50" xml:space="preserve" xmlns="http://www.w3.org/2000/svg" xmlns:xlink="http://www.w3.org/1999/xlink"><path d="M45,1H5C2.8,1,1,2.8,1,5v40c0,2.2,1.8,4,4,4h40c2.2,0,4-1.8,4-4V5C49,2.8,47.2,1,45,1z" fill="#68217A"/><path d="M33.1,10L21,22l-8-6l-3,1v15l3,2l8-6l11.9,12l7.1-3V12.9L33.1,10z M13,29v-8l5,4L13,29z M33,31  l-8-6l8-6V31z" fill="#FFFFFF" id="B_1_"/></svg>