<?xml version="1.0" ?><!DOCTYPE svg  PUBLIC '-//W3C//DTD SVG 1.1//EN'  'http://www.w3.org/Graphics/SVG/1.1/DTD/svg11.dtd'><svg height="176.389mm" style="shape-rendering:geometricPrecision; text-rendering:geometricPrecision; image-rendering:optimizeQuality; fill-rule:evenodd; clip-rule:evenodd" version="1.1" viewBox="0 0 17639 17639" width="176.389mm" xml:space="preserve" xmlns="http://www.w3.org/2000/svg" xmlns:xlink="http://www.w3.org/1999/xlink"><defs><style type="text/css">
   <![CDATA[
    .fil1 {fill:none}
    .fil0 {fill:#A13538}
   ]]>
  </style></defs><g id="Layer_x0020_1"><path class="fil0" d="M3525 12780l0 -8027 6125 -1029 1 10152 -5941 -991c-280,-87 -69,-40 -185,-105zm6386 -909l-10 -1349c1274,51 3434,167 4229,-758l10 1062c-1,1224 -3419,1072 -4229,1045zm-9 -1629l0 -1323c1035,-25 3116,183 4119,-680 86,-67 4,-17 119,-86 -16,1200 331,1615 -1317,1989 -748,152 -2162,253 -2921,100zm1254 -1568l-1244 -32 -11 -1344c1106,29 3065,52 3951,-534l149 -119c10,-9 22,-19 32,-27 10,-9 24,-20 33,-28 10,-9 27,-22 35,-29 9,-7 24,-20 36,-29 9,505 0,853 -4,1111 -4,259 -313,618 -1170,820 -523,123 -1245,211 -1807,211zm-1254 -1663l1 -1760c894,-115 4327,0 4220,923 -96,829 -3350,986 -4221,837zm-7856 8568l13547 0 0 -13520 -13520 0 -27 13520z"/><path class="fil0" d="M6646 7883l315 1322 -657 -17 342 -1305zm-1290 2652l641 41 172 -765 935 30 250 795 673 39 -1002 -3615 -724 31 -945 3444z"/><polygon class="fil1" points="6304,9188 6961,9205 6646,7883 "/></g></svg>