<?xml version="1.0" encoding="utf-8"?>
<!-- Generator: Adobe Illustrator 17.1.0, SVG Export Plug-In . SVG Version: 6.00 Build 0)  -->
<!DOCTYPE svg PUBLIC "-//W3C//DTD SVG 1.1//EN" "http://www.w3.org/Graphics/SVG/1.1/DTD/svg11.dtd">
<svg version="1.1" id="Layer_1" xmlns="http://www.w3.org/2000/svg" xmlns:xlink="http://www.w3.org/1999/xlink" x="0px" y="0px"
	 viewBox="0 0 100 100" enable-background="new 0 0 100 100" xml:space="preserve">
<g>
	<g>
		<path id="path12299" d="M3.7,79.2c0,0.4-0.1,0.7-0.4,1c-0.3,0.3-0.6,0.4-1,0.4c-0.4,0-0.7-0.1-1-0.4c-0.3-0.3-0.4-0.6-0.4-1
			c0-0.4,0.1-0.7,0.4-1c0.3-0.3,0.6-0.4,1-0.4s0.7,0.1,1,0.4C3.6,78.5,3.7,78.8,3.7,79.2"/>
		<path id="path12303" d="M21.7,80.4h-2.6L9.6,65.7C9.4,65.4,9.2,65,9,64.6H8.9C9,65,9,65.8,9,67.1v13.3H6.9V62h2.8l9.2,14.4
			c0.4,0.6,0.6,1,0.7,1.2h0.1c-0.1-0.5-0.1-1.4-0.1-2.7V62h2.1L21.7,80.4L21.7,80.4z"/>
		<path id="path12307" d="M35.5,80.4h-9.7V62H35v2h-7.2v6.1h6.6v2h-6.6v6.4h7.6L35.5,80.4z"/>
		<path id="path12311" d="M50.2,64h-5.3v16.4h-2.2V64h-5.3v-2h12.7V64L50.2,64z"/>
	</g>
	<g>
		<path id="path12245" d="M82.8,53.5H82V56h-0.3v-2.6h-0.8v-0.3h2L82.8,53.5z"/>
		<path id="path12257" d="M86.2,56h-0.3v-1.9c0-0.1,0-0.3,0-0.6l0,0c0,0.1-0.1,0.2-0.1,0.3l-1,2.2h-0.2l-1-2.2
			c0-0.1-0.1-0.1-0.1-0.3l0,0c0,0.1,0,0.3,0,0.6V56h-0.3v-2.9h0.4l0.9,2c0.1,0.1,0.1,0.3,0.1,0.4l0,0c0.1-0.1,0.1-0.3,0.1-0.4l0.9-2
			h0.4L86.2,56L86.2,56z"/>
		
			<linearGradient id="path12339_2_" gradientUnits="userSpaceOnUse" x1="-700.1471" y1="-991.1549" x2="-698.9837" y2="-991.1549" gradientTransform="matrix(0 38.1004 -38.1004 0 -37717.1328 26696.3555)">
			<stop  offset="0" style="stop-color:#0994DC"/>
			<stop  offset="0.35" style="stop-color:#66CEF5"/>
			<stop  offset="0.35" style="stop-color:#66CEF5"/>
			<stop  offset="0.8462" style="stop-color:#127BCA"/>
			<stop  offset="0.8462" style="stop-color:#127BCA"/>
			<stop  offset="1" style="stop-color:#127BCA"/>
		</linearGradient>
		<path id="path12339" fill="url(#path12339_2_)" d="M37.9,27.5C41.3,37.7,42.6,56,52.4,56l0,0c0.7,0,1.5-0.1,2.2-0.2l0,0
			c-8.9-2.1-9.9-20.2-15.4-29.5l0,0C38.8,26.7,38.4,27.1,37.9,27.5"/>
		
			<linearGradient id="path12367_2_" gradientUnits="userSpaceOnUse" x1="-700.3712" y1="-991.2599" x2="-699.2078" y2="-991.2599" gradientTransform="matrix(0 39.0714 -39.0714 0 -38681.9492 27383.8242)">
			<stop  offset="0" style="stop-color:#0E76BC"/>
			<stop  offset="0.36" style="stop-color:#36AEE8"/>
			<stop  offset="0.36" style="stop-color:#36AEE8"/>
			<stop  offset="0.8462" style="stop-color:#00ADEF"/>
			<stop  offset="0.8462" style="stop-color:#00ADEF"/>
			<stop  offset="1" style="stop-color:#00ADEF"/>
		</linearGradient>
		<path id="path12367" fill="url(#path12367_2_)" d="M39.2,26.3c5.4,9.4,6.5,27.4,15.4,29.5l0,0c0.7-0.1,1.4-0.3,2.1-0.6l0,0
			c-8-3.9-10.2-21.5-16.4-29.9l0,0C39.9,25.6,39.6,25.9,39.2,26.3"/>
		<path id="path12379" fill="#14559A" d="M47,20.7c-0.7,0-1.5,0.1-2.2,0.2c-2,0.4-4,1.2-6,2.5c0.6,0.5,1.1,1.2,1.6,1.9
			c2.1-1.7,4.1-3,6.2-3.7c0.8-0.3,1.5-0.5,2.3-0.7C48.2,20.8,47.6,20.7,47,20.7"/>
		
			<linearGradient id="path12459_2_" gradientUnits="userSpaceOnUse" x1="-720.0054" y1="-999.9759" x2="-718.842" y2="-999.9759" gradientTransform="matrix(0 -31.0885 31.0885 0 31144.875 -22328.9609)">
			<stop  offset="0" style="stop-color:#1C63B7"/>
			<stop  offset="0.5" style="stop-color:#33BDF2"/>
			<stop  offset="1" style="stop-color:#33BDF2;stop-opacity:0.4196"/>
		</linearGradient>
		<path id="path12459" fill="url(#path12459_2_)" d="M62.9,51.6c0.8-0.7,1.6-1.4,2.5-2.2C62,39.3,60.8,20.7,50.9,20.7
			c-0.7,0-1.4,0.1-2.1,0.2C57.8,23.2,58.9,42.7,62.9,51.6"/>
		<path id="path12521" fill="#3092C4" d="M48.8,20.9c-0.6-0.1-1.1-0.2-1.7-0.2h3.9C50.2,20.7,49.5,20.8,48.8,20.9"/>
		<path id="path12525" fill="#1969BC" d="M62.8,53.8c-0.4-0.4-0.7-0.8-1.1-1.2c-1.7,1.2-3.3,2.1-4.9,2.6c0.6,0.3,1.2,0.5,1.8,0.6
			c0.5,0.1,1,0.1,1.6,0.1c1.8,0,3.3-0.2,4.5-0.8C64,54.8,63.3,54.3,62.8,53.8"/>
		
			<linearGradient id="path12553_2_" gradientUnits="userSpaceOnUse" x1="-700.705" y1="-991.4264" x2="-699.5416" y2="-991.4264" gradientTransform="matrix(0 40.5662 -40.5662 0 -40163.6992 28439.7012)">
			<stop  offset="0" style="stop-color:#166AB8"/>
			<stop  offset="0.4" style="stop-color:#36AEE8"/>
			<stop  offset="0.4" style="stop-color:#36AEE8"/>
			<stop  offset="0.8462" style="stop-color:#0798DD"/>
			<stop  offset="0.8462" style="stop-color:#0798DD"/>
			<stop  offset="1" style="stop-color:#0798DD"/>
		</linearGradient>
		<path id="path12553" fill="url(#path12553_2_)" d="M46.5,21.6c8.1,4.2,8.7,23.3,15.2,31l0,0c0.4-0.3,0.9-0.6,1.3-1l0,0
			c-4-8.9-5.2-28.4-14.2-30.7l0,0C48,21.1,47.3,21.3,46.5,21.6"/>
		
			<linearGradient id="path12581_2_" gradientUnits="userSpaceOnUse" x1="-701.1985" y1="-991.6355" x2="-700.0352" y2="-991.6355" gradientTransform="matrix(0 43.1368 -43.1368 0 -42724.9844 30262.4512)">
			<stop  offset="0" style="stop-color:#124379"/>
			<stop  offset="0.39" style="stop-color:#1487CB"/>
			<stop  offset="0.39" style="stop-color:#1487CB"/>
			<stop  offset="0.7802" style="stop-color:#165197"/>
			<stop  offset="0.7802" style="stop-color:#165197"/>
			<stop  offset="1" style="stop-color:#165197"/>
		</linearGradient>
		<path id="path12581" fill="url(#path12581_2_)" d="M40.3,25.3c6.2,8.4,8.4,26,16.4,29.9l0,0c1.6-0.6,3.3-1.5,4.9-2.6l0,0
			c-6.4-7.7-7.1-26.8-15.2-31l0,0C44.4,22.3,42.4,23.6,40.3,25.3"/>
		
			<linearGradient id="path12651_2_" gradientUnits="userSpaceOnUse" x1="99.852" y1="1403.4474" x2="106.7568" y2="1403.4474" gradientTransform="matrix(1.0276 0 0 1.0276 -71.7767 -1411.7599)">
			<stop  offset="0" style="stop-color:#33BDF2;stop-opacity:0.698"/>
			<stop  offset="1" style="stop-color:#1DACD8"/>
		</linearGradient>
		<path id="path12651" fill="url(#path12651_2_)" d="M34,27.3c-1,2.2-2,5.1-3.1,8.8c2.4-3.3,4.7-6.2,7.1-8.6c-0.3-1-0.7-1.9-1-2.7
			C35.9,25.5,34.9,26.3,34,27.3"/>
		<path id="path12655" fill="#2B74B1" d="M37.7,24.1c-0.3,0.2-0.6,0.4-0.9,0.6c0.4,0.8,0.7,1.7,1,2.7c0.4-0.4,0.9-0.8,1.3-1.2
			C38.7,25.5,38.3,24.8,37.7,24.1"/>
		<path id="path12659" fill="#125A9E" d="M38.8,23.4c-0.3,0.2-0.7,0.4-1,0.7c0.5,0.7,1,1.4,1.5,2.2c0.4-0.3,0.7-0.7,1.1-1
			C39.8,24.6,39.3,24,38.8,23.4"/>
		
			<linearGradient id="path12741_2_" gradientUnits="userSpaceOnUse" x1="-720.2933" y1="-999.9801" x2="-719.1299" y2="-999.9801" gradientTransform="matrix(0 -30.2846 30.2846 0 30368.0234 -21759.707)">
			<stop  offset="0" style="stop-color:#136AB4"/>
			<stop  offset="0.6" style="stop-color:#59CAF5;stop-opacity:0.549"/>
			<stop  offset="1" style="stop-color:#59CAF5;stop-opacity:0.2353"/>
		</linearGradient>
		<path id="path12741" fill="url(#path12741_2_)" d="M93.6,19.9c-4.6,17.6-14.1,31.6-22,35.2h0c-0.1,0.1-0.3,0.1-0.4,0.2
			c0,0,0,0-0.1,0c0,0-0.1,0-0.1,0.1c0,0,0,0-0.1,0c-0.1,0-0.1,0-0.2,0.1c0,0-0.1,0-0.1,0s-0.1,0-0.1,0c0,0-0.1,0-0.1,0
			c0,0-0.1,0-0.1,0c-0.1,0-0.1,0-0.2,0.1c0,0-0.1,0-0.1,0c0,0-0.1,0-0.1,0c0,0-0.1,0-0.1,0c0,0-0.1,0-0.1,0c-0.1,0-0.1,0-0.1,0
			c0.4,0.1,0.7,0.2,1.2,0.2C78.3,56,86,42.5,98.5,20L93.6,19.9L93.6,19.9z"/>
		
			<linearGradient id="path12803_2_" gradientUnits="userSpaceOnUse" x1="75.3366" y1="1411.6144" x2="100.9467" y2="1411.6144" gradientTransform="matrix(1.0276 0 0 1.0276 -71.7767 -1411.7599)">
			<stop  offset="0" style="stop-color:#05A1E6;stop-opacity:0.2471"/>
			<stop  offset="1" style="stop-color:#05A1E6"/>
		</linearGradient>
		<path id="path12803" fill="url(#path12803_2_)" d="M29.2,21.4L29.2,21.4C29.2,21.4,29.2,21.4,29.2,21.4L29.2,21.4
			c0.1,0,0.1-0.1,0.1-0.1h0h0c0.1,0,0.1,0,0.1-0.1l0,0c0.1,0,0.2-0.1,0.3-0.1h0c0,0,0.1,0,0.1,0c0,0,0,0,0.1,0c0,0,0.1,0,0.1,0
			c0,0,0,0,0.1,0c0.1,0,0.3-0.1,0.4-0.1c0,0,0,0,0.1,0c0,0,0.1,0,0.1,0c0,0,0,0,0.1,0c0,0,0.1,0,0.1,0h0c0.1,0,0.2,0,0.3-0.1
			c0,0,0,0,0.1,0c0,0,0.1,0,0.1,0c0,0,0.1,0,0.1,0c0,0,0.1,0,0.1,0c0,0,0,0,0.1,0c0.1,0,0.2,0,0.3,0c-0.3,0-0.5,0-0.8,0
			c-8.5,0-20.2,15.8-25.5,36.2c0,0,0.4,0,1,0c1.7-3,3.2-5.9,4.6-8.6C15,33.9,22.5,24,29.2,21.4"/>
		<path id="path12807" fill="#0D82CA" d="M34,27.3c1-0.9,1.9-1.7,2.9-2.5c-0.2-0.5-0.4-0.9-0.7-1.3C35.4,24.4,34.7,25.6,34,27.3"/>
		<path id="path12811" fill="#0D82CA" d="M34.7,21.5c0.6,0.5,1.1,1.1,1.5,1.9c0.1-0.2,0.3-0.3,0.4-0.5C36,22.3,35.3,21.8,34.7,21.5
			C34.6,21.5,34.6,21.5,34.7,21.5C34.7,21.5,34.7,21.5,34.7,21.5"/>
		
			<linearGradient id="path12831_2_" gradientUnits="userSpaceOnUse" x1="-720.0337" y1="-1000.1545" x2="-718.8703" y2="-1000.1545" gradientTransform="matrix(0 -31.009 31.009 0 31033.9668 -22272.5234)">
			<stop  offset="0" style="stop-color:#318ED5"/>
			<stop  offset="1" style="stop-color:#38A7E4"/>
		</linearGradient>
		<path id="path12831" fill="url(#path12831_2_)" d="M11.3,48.4C19,33.4,22.7,24,29.2,21.4l0,0C22.5,24,15,33.9,11.3,48.4"/>
		<path id="path12843" fill="#127BCA" d="M36.6,22.9c-0.1,0.1-0.3,0.3-0.4,0.5c0.2,0.4,0.5,0.9,0.7,1.3c0.3-0.2,0.6-0.4,0.9-0.6
			C37.4,23.7,37,23.3,36.6,22.9"/>
		
			<linearGradient id="path12923_2_" gradientUnits="userSpaceOnUse" x1="-720.3514" y1="-1000.289" x2="-719.188" y2="-1000.289" gradientTransform="matrix(0 -30.1424 30.1424 0 30173.5703 -21658.0254)">
			<stop  offset="0" style="stop-color:#05A1E6"/>
			<stop  offset="1" style="stop-color:#05A1E6;stop-opacity:0.549"/>
		</linearGradient>
		<path id="path12923" fill="url(#path12923_2_)" d="M14.8,56.9L14.8,56.9c-0.1,0-0.1,0-0.1,0c0,0,0,0,0,0c0,0-0.1,0-0.1,0h0
			c-0.1,0-0.2,0-0.3,0h0c7.8-0.2,11.5-4.1,13.2-9.9c1.4-4.3,2.5-8,3.4-11c-3.3,4.6-6.6,10.2-9.9,16.3C19.3,55.3,16.9,56.6,14.8,56.9
			"/>
		
			<linearGradient id="path12949_2_" gradientUnits="userSpaceOnUse" x1="-722.4426" y1="-1001.2222" x2="-721.278" y2="-1001.2222" gradientTransform="matrix(0 -25.4708 25.4708 0 25526.2969 -18344.3262)">
			<stop  offset="0" style="stop-color:#1959A6"/>
			<stop  offset="0.5" style="stop-color:#05A1E6"/>
			<stop  offset="0.5" style="stop-color:#05A1E6"/>
			<stop  offset="0.9176" style="stop-color:#7EC5EA"/>
			<stop  offset="1" style="stop-color:#7EC5EA"/>
		</linearGradient>
		<path id="path12949" fill="url(#path12949_2_)" d="M14.8,56.9L14.8,56.9c2.1-0.3,4.5-1.5,6.1-4.5l0,0c3.3-6.2,6.6-11.7,9.9-16.3
			l0,0c1.2-3.8,2.2-6.6,3.1-8.8l0,0C27.4,33.5,20.9,43.8,14.8,56.9"/>
		<path id="path12961" fill="#05A1E6" d="M11.3,48.4c-1.4,2.7-2.9,5.5-4.6,8.6c0.7,0,1.8,0,3,0C10,54,10.6,51.1,11.3,48.4"/>
		
			<linearGradient id="path12981_2_" gradientUnits="userSpaceOnUse" x1="-720.0567" y1="-1002.6926" x2="-718.8923" y2="-1002.6926" gradientTransform="matrix(-4.8697 -27.6175 27.6175 -4.8697 24210.959 -24714.0469)">
			<stop  offset="0" style="stop-color:#165096"/>
			<stop  offset="1" style="stop-color:#0D82CA"/>
		</linearGradient>
		<path id="path12981" fill="url(#path12981_2_)" d="M31.7,20.8C31.7,20.8,31.7,20.8,31.7,20.8L31.7,20.8c-0.1,0-0.1,0-0.2,0l0,0
			c0,0,0,0-0.1,0l0,0c0,0-0.1,0-0.1,0l0,0c0,0,0,0-0.1,0l0,0c-0.1,0-0.2,0-0.3,0l0,0h0l0,0c0,0-0.1,0-0.1,0l0,0c0,0,0,0-0.1,0l0,0
			c0,0-0.1,0-0.1,0l0,0c0,0,0,0-0.1,0l0,0c-0.1,0-0.3,0.1-0.4,0.1l0,0c0,0,0,0-0.1,0l0,0c0,0-0.1,0-0.1,0l0,0c0,0,0,0-0.1,0l0,0
			c0,0-0.1,0-0.1,0l0,0c0,0,0,0-0.1,0l0,0c-0.1,0-0.2,0.1-0.3,0.1l0,0l0,0l0,0c0,0-0.1,0-0.1,0.1l0,0c0,0,0,0-0.1,0l0,0
			c0,0-0.1,0-0.1,0.1l0,0c0,0,0,0,0,0l0,0c-6.5,2.6-10.2,12-17.9,27l0,0c-0.7,2.7-1.2,5.5-1.6,8.5l0,0h0.4c1.2,0,1.5,0,2.8,0l0,0H13
			h0.2h0.1h0h0.1h0h0h0.1h0.2h0.2h0.1h0c0.1,0,0.2,0,0.2,0l0,0c0.1,0,0.2,0,0.3,0l0,0h0l0,0c0,0,0.1,0,0.1,0l0,0c0,0,0,0,0,0l0,0
			c0,0,0.1,0,0.1,0l0,0l0,0c6.1-13,12.6-23.4,19.2-29.6l0,0c0.7-1.6,1.4-2.9,2.2-3.8l0,0c-0.4-0.8-0.9-1.4-1.5-1.9l0,0h0l0,0
			c0,0-0.1,0-0.1,0l0,0c0,0-0.1,0-0.1-0.1l0,0c0,0-0.1,0-0.1,0l0,0c0,0-0.1,0-0.1,0l0,0c0,0-0.1,0-0.1,0l0,0c-0.1,0-0.1-0.1-0.2-0.1
			l0,0c0,0-0.1,0-0.1,0l0,0c0,0-0.1,0-0.1-0.1l0,0c0,0-0.1,0-0.1,0l0,0c-0.1,0-0.1,0-0.2-0.1l0,0c0,0,0,0,0,0l0,0
			c-0.1,0-0.1,0-0.2-0.1l0,0c0,0,0,0-0.1,0l0,0c-0.1,0-0.1,0-0.2-0.1l0,0c0,0,0,0,0,0l0,0c-0.1,0-0.3-0.1-0.4-0.1l0,0c0,0,0,0-0.1,0
			l0,0c-0.1,0-0.1,0-0.2,0l0,0c0,0,0,0,0,0l0,0c-0.1,0-0.1,0-0.2,0l0,0c0,0,0,0,0,0l0,0c-0.1,0-0.1,0-0.2,0l0,0
			C31.9,20.8,31.8,20.8,31.7,20.8"/>
		
			<linearGradient id="path13003_2_" gradientUnits="userSpaceOnUse" x1="-732.5293" y1="-1005.3518" x2="-731.3659" y2="-1005.3518" gradientTransform="matrix(0 -14.4327 14.4327 0 14588.041 -10535.5889)">
			<stop  offset="0" style="stop-color:#05A1E6"/>
			<stop  offset="0.8736" style="stop-color:#0495D6"/>
			<stop  offset="1" style="stop-color:#0495D6"/>
		</linearGradient>
		<path id="path13003" fill="url(#path13003_2_)" d="M75.9,29.6c-1.5,4.8-2.7,8.7-3.8,12l0,0c4.1-5.6,8.1-12.7,12-20.9l0,0
			C79.6,22.1,77.2,25.3,75.9,29.6"/>
		
			<linearGradient id="path13093_2_" gradientUnits="userSpaceOnUse" x1="-698.4274" y1="-992.6099" x2="-697.264" y2="-992.6099" gradientTransform="matrix(-5.8684 33.2811 -33.2811 -5.8684 -37047.7734 17437.8984)">
			<stop  offset="0" style="stop-color:#38A7E4;stop-opacity:0.3294"/>
			<stop  offset="0.9615" style="stop-color:#0E88D3"/>
			<stop  offset="0.9615" style="stop-color:#0E88D3"/>
			<stop  offset="1" style="stop-color:#0E88D3"/>
		</linearGradient>
		<path id="path13093" fill="url(#path13093_2_)" d="M72.2,54.8C72,55,71.8,55,71.6,55.1c8-3.6,17.5-17.6,22-35.2h-0.9
			C82.3,38.6,78.9,51.1,72.2,54.8"/>
		<path id="path13097" fill="#079AE1" d="M67,53.3c1.7-2.1,3.1-5.7,5.1-11.6c-2.2,3-4.5,5.7-6.7,7.8c0,0,0,0,0,0
			C65.9,50.9,66.4,52.2,67,53.3"/>
		<path id="path13101" fill="#1969BC" d="M67,53.3c-0.6,0.7-1.2,1.3-1.9,1.7c-0.1,0.1-0.3,0.2-0.5,0.2c0.7,0.4,1.5,0.7,2.4,0.8l0,0
			l0,0c0.1,0,0.3,0,0.4,0h0c0.1,0,0.1,0,0.2,0h0c0.1,0,0.1,0,0.2,0c0.1,0,0.1,0,0.2,0c0,0,0,0,0.1,0c0.1,0,0.1,0,0.1,0
			c0,0,0.1,0,0.1,0c0.1,0,0.1,0,0.1,0c0,0,0,0,0,0s0,0,0.1,0c0.1,0,0.1,0,0.1,0l0,0c0,0,0,0,0.1,0c0.1,0,0.1,0,0.2,0c0,0,0,0,0.1,0
			c0.1,0,0.1,0,0.2,0l0,0c0,0,0,0,0,0c0.1,0,0.2-0.1,0.4-0.1C68.6,55.4,67.8,54.5,67,53.3"/>
		<path id="path13105" fill="#1E5CB3" d="M52.4,56c0.7,0,1.5-0.1,2.2-0.2c0.7-0.1,1.4-0.3,2.1-0.6c0.6,0.3,1.2,0.5,1.8,0.6
			c0.5,0.1,1,0.1,1.6,0.1L52.4,56z"/>
		<path id="path13109" fill="#1E5CB3" d="M60.1,56c1.8,0,3.3-0.2,4.5-0.8c0.7,0.4,1.5,0.7,2.4,0.8l0,0l0,0c0.1,0,0.3,0,0.4,0h0
			c0.1,0,0.1,0,0.2,0h0c0.1,0,0.1,0,0.2,0L60.1,56L60.1,56z"/>
		<path id="path13113" fill="#1D60B5" d="M67.9,56c0.1,0,0.1,0,0.2,0c0,0,0,0,0.1,0c0.1,0,0.1,0,0.1,0c0,0,0.1,0,0.1,0
			c0.1,0,0.1,0,0.1,0c0,0,0,0,0,0c0,0,0,0,0.1,0c0.1,0,0.1,0,0.1,0l0,0c0,0,0,0,0.1,0c0.1,0,0.1,0,0.2,0c0,0,0,0,0.1,0
			c0.1,0,0.1,0,0.2,0l0,0c0,0,0,0,0,0c0.1,0,0.2-0.1,0.4-0.1l0,0c0.4,0.1,0.7,0.2,1.2,0.2L67.9,56L67.9,56z"/>
		<path id="path13117" fill="#175FAB" d="M65.4,49.5L65.4,49.5c-0.8,0.8-1.6,1.5-2.5,2.1c-0.4,0.3-0.9,0.7-1.3,1
			c0.4,0.4,0.7,0.8,1.1,1.2c0.6,0.6,1.2,1,1.9,1.4c0.1-0.1,0.3-0.1,0.5-0.2c0.7-0.4,1.3-0.9,1.9-1.7C66.4,52.2,65.9,50.9,65.4,49.5"
			/>
		
			<linearGradient id="path13139_2_" gradientUnits="userSpaceOnUse" x1="-698.2904" y1="-990.4702" x2="-697.127" y2="-990.4702" gradientTransform="matrix(0 31.4866 -31.4866 0 -31106.6094 22006.6367)">
			<stop  offset="0" style="stop-color:#168CD4"/>
			<stop  offset="0.5" style="stop-color:#1C87CC"/>
			<stop  offset="1" style="stop-color:#154B8D"/>
		</linearGradient>
		<path id="path13139" fill="url(#path13139_2_)" d="M89.8,19.9h-3.9c-0.1,0-0.3,0-0.4,0l0,0c-0.1,0-0.2,0-0.4,0l0,0l0,0
			c-0.2,0-0.5,0-0.7,0l0,0c-0.1,0.2-0.2,0.5-0.4,0.7l0,0c-3.8,8.2-7.9,15.3-12,20.9l0,0c-1.9,5.9-3.3,9.5-5.1,11.6l0,0
			c0.7,1.3,1.6,2.2,2.6,2.5l0,0c0,0,0.1,0,0.1,0l0,0h0l0,0c0,0,0,0,0.1,0l0,0c0,0,0.1,0,0.1,0l0,0c0,0,0.1,0,0.1,0l0,0
			c0,0,0.1,0,0.1,0l0,0c0,0,0.1,0,0.1,0l0,0c0.1,0,0.1,0,0.2-0.1l0,0c0,0,0.1,0,0.1,0l0,0c0,0,0.1,0,0.1,0l0,0c0,0,0.1,0,0.1,0l0,0
			c0,0,0.1,0,0.1,0l0,0c0.1,0,0.1,0,0.2-0.1l0,0c0,0,0,0,0.1,0l0,0c0,0,0.1,0,0.1-0.1l0,0c0,0,0,0,0.1,0l0,0
			c0.1-0.1,0.3-0.1,0.4-0.2l0,0h0l0,0c0.2-0.1,0.4-0.2,0.6-0.3l0,0c6.7-3.7,10-16.2,20.5-34.9l0,0L89.8,19.9L89.8,19.9z"/>
		<path id="path13231" fill="#7DCBEC" d="M32,20.7C32,20.7,32,20.7,32,20.7c0.1,0,0.1,0,0.2,0s0,0,0,0c0.1,0,0.1,0,0.2,0h0
			c0.1,0,0.1,0,0.2,0c0,0,0,0,0.1,0c0.1,0,0.3,0.1,0.4,0.1h0c0.1,0,0.1,0,0.2,0.1c0,0,0,0,0.1,0c0.1,0,0.1,0,0.2,0.1c0,0,0,0,0,0
			c0.1,0,0.1,0,0.2,0.1c0,0,0.1,0,0.1,0c0,0,0.1,0,0.1,0.1c0,0,0.1,0,0.1,0c0.1,0,0.1,0.1,0.2,0.1c0,0,0.1,0,0.1,0c0,0,0.1,0,0.1,0
			c0,0,0.1,0,0.1,0c0,0,0.1,0,0.1,0.1c0.7,0.4,1.4,0.9,2,1.5c0.2-0.2,0.5-0.5,0.7-0.7c-1.4-1-3-1.5-4.8-1.5
			C32.4,20.7,32.2,20.7,32,20.7"/>
		<path id="path13235" fill="#5EC5ED" d="M36.6,22.9c0.4,0.4,0.8,0.8,1.1,1.2c0.3-0.2,0.7-0.5,1-0.7c-0.4-0.4-0.9-0.8-1.4-1.2
			C37.1,22.5,36.9,22.7,36.6,22.9"/>
		<g id="g13243" transform="matrix(5.0481458,0,0,-5.0481458,-9064.2597,2270.6096)">
			
				<linearGradient id="path13245_2_" gradientUnits="userSpaceOnUse" x1="2180.7095" y1="520.4416" x2="2181.8728" y2="520.4416" gradientTransform="matrix(36.6129 -15.1859 -15.1859 -36.6129 -70136.6406 52616.9844)">
				<stop  offset="0" style="stop-color:#97D6EE"/>
				<stop  offset="0.7033" style="stop-color:#55C1EA"/>
				<stop  offset="1" style="stop-color:#55C1EA"/>
			</linearGradient>
			<path id="path13245" fill="url(#path13245_2_)" d="M1801.9,445.7c0,0,0.1,0,0.1,0c0.4,0,0.7-0.1,0.9-0.3c0.3,0.2,0.7,0.3,1.1,0.3
				h-2.3C1801.8,445.7,1801.8,445.7,1801.9,445.7"/>
		</g>
		<g id="g13253" transform="matrix(5.0481458,0,0,-5.0481458,-9064.2597,2270.6096)">
			
				<linearGradient id="path13255_2_" gradientUnits="userSpaceOnUse" x1="2179.0342" y1="520.1161" x2="2180.1975" y2="520.1161" gradientTransform="matrix(28.9168 13.109 13.109 -28.9168 -68025.7031 -13079.7041)">
				<stop  offset="0" style="stop-color:#7ACCEC"/>
				<stop  offset="1" style="stop-color:#3FB7ED"/>
			</linearGradient>
			<path id="path13255" fill="url(#path13255_2_)" d="M1804.1,445.7c-0.5,0-0.8-0.1-1.1-0.3c0.1-0.1,0.2-0.1,0.3-0.2
				c0.4,0.3,0.8,0.4,1.2,0.5c0.1,0,0.3,0,0.4,0H1804.1L1804.1,445.7z"/>
		</g>
		
			<linearGradient id="path13333_2_" gradientUnits="userSpaceOnUse" x1="-698.0414" y1="-990.3413" x2="-696.878" y2="-990.3413" gradientTransform="matrix(0 30.7971 -30.7971 0 -30424.6738 21519.4805)">
			<stop  offset="0" style="stop-color:#1DA7E7"/>
			<stop  offset="1" style="stop-color:#37ABE7;stop-opacity:0"/>
		</linearGradient>
		<path id="path13333" fill="url(#path13333_2_)" d="M72.1,41.6c1.1-3.3,2.2-7.2,3.8-12c1.4-4.3,3.7-7.5,8.2-8.9
			c0.1-0.2,0.2-0.5,0.4-0.7c-7.3,0.4-10.7,4.1-12.4,9.7c-3,9.6-4.8,15.8-6.6,19.8C67.6,47.3,69.9,44.7,72.1,41.6"/>
	</g>
	<g>
		<path d="M69.6,73.6c-0.1-2.2-0.3-4.8-0.2-6.8h-0.1c-0.5,1.8-1.2,3.8-2,6l-2.8,7.6H63l-2.5-7.5c-0.7-2.2-1.4-4.2-1.8-6.1h-0.1
			c-0.1,2-0.1,4.6-0.3,6.9l-0.4,6.7H56l1.1-15.7h2.6l2.7,7.6c0.7,1.9,1.2,3.6,1.6,5.3H64c0.4-1.6,0.9-3.3,1.7-5.3l2.8-7.6H71l1,15.7
			h-2L69.6,73.6z"/>
		<path d="M78.6,80.4l-5.1-15.7h2.2l2.5,7.7c0.7,2.1,1.2,4,1.7,5.9h0.1c0.4-1.8,1.1-3.8,1.8-5.8l2.7-7.8h2.2l-5.6,15.7H78.6z"/>
		<path d="M99.1,79.9c-0.7,0.4-2.2,0.7-4.1,0.7c-4.4,0-7.8-2.8-7.8-7.9c0-4.9,3.3-8.2,8.2-8.2c2,0,3.2,0.4,3.7,0.7l-0.5,1.7
			c-0.8-0.4-1.9-0.7-3.2-0.7c-3.7,0-6.1,2.3-6.1,6.5c0,3.8,2.2,6.3,6,6.3c1.2,0,2.5-0.3,3.3-0.7L99.1,79.9z"/>
	</g>
</g>
</svg>
