<?xml version="1.0" encoding="UTF-8" standalone="no"?>
<!-- Generator: Adobe Illustrator 15.1.0, SVG Export Plug-In . SVG Version: 6.00 Build 0)  -->

<svg
   xmlns:dc="http://purl.org/dc/elements/1.1/"
   xmlns:cc="http://creativecommons.org/ns#"
   xmlns:rdf="http://www.w3.org/1999/02/22-rdf-syntax-ns#"
   xmlns:svg="http://www.w3.org/2000/svg"
   xmlns="http://www.w3.org/2000/svg"
   xmlns:sodipodi="http://sodipodi.sourceforge.net/DTD/sodipodi-0.dtd"
   xmlns:inkscape="http://www.inkscape.org/namespaces/inkscape"
   version="1.1"
   id="Layer_1"
   x="0px"
   y="0px"
   width="1000"
   height="1000"
   viewBox="0 0 999.99998 1000"
   enable-background="new 0 0 1024 600"
   xml:space="preserve"
   inkscape:version="0.91 r13725"
   sodipodi:docname="language.c#.svg"><metadata
     id="metadata81"><rdf:RDF><cc:Work
         rdf:about=""><dc:format>image/svg+xml</dc:format><dc:type
           rdf:resource="http://purl.org/dc/dcmitype/StillImage" /><dc:title></dc:title></cc:Work></rdf:RDF></metadata><defs
     id="defs79" /><sodipodi:namedview
     pagecolor="#ffffff"
     bordercolor="#666666"
     borderopacity="1"
     objecttolerance="10"
     gridtolerance="10"
     guidetolerance="10"
     inkscape:pageopacity="0"
     inkscape:pageshadow="2"
     inkscape:window-width="1920"
     inkscape:window-height="1017"
     id="namedview77"
     showgrid="false"
     borderlayer="true"
     inkscape:zoom="0.70710678"
     inkscape:cx="742.214"
     inkscape:cy="492.30669"
     inkscape:window-x="1912"
     inkscape:window-y="-8"
     inkscape:window-maximized="1"
     inkscape:current-layer="g27"
     fit-margin-top="0"
     fit-margin-left="0"
     fit-margin-right="0"
     fit-margin-bottom="0"
     inkscape:snap-bbox="true"
     inkscape:bbox-paths="false"
     inkscape:bbox-nodes="false"
     inkscape:snap-bbox-edge-midpoints="false"
     inkscape:snap-bbox-midpoints="false"
     inkscape:object-paths="false"
     inkscape:snap-intersection-paths="false"
     inkscape:object-nodes="true"
     inkscape:snap-smooth-nodes="false"
     inkscape:snap-midpoints="false"
     inkscape:snap-nodes="true"
     inkscape:snap-global="false"><inkscape:grid
       type="xygrid"
       id="grid3345"
       originx="-144.93044"
       originy="-329.43114" /></sodipodi:namedview><g
     id="g27"
     transform="translate(-845.48045,763.71612)"><text
       xml:space="preserve"
       style="font-style:normal;font-weight:normal;font-size:2.66758442px;line-height:125%;font-family:sans-serif;letter-spacing:0px;word-spacing:0px;fill:#000000;fill-opacity:1;stroke:none;stroke-width:1px;stroke-linecap:butt;stroke-linejoin:miter;stroke-opacity:1"
       x="856.4585"
       y="221.68475"
       id="text4144"
       sodipodi:linespacing="125%"><tspan
         sodipodi:role="line"
         id="tspan4146"
         x="856.4585"
         y="221.68475"
         style="font-style:normal;font-variant:normal;font-weight:normal;font-stretch:normal;font-family:Haettenschweiler;-inkscape-font-specification:Haettenschweiler" /></text>
<g
       id="g4323"
       transform="matrix(95.975305,0,0,95.975305,-80286.315,-22406.66)"><path
         sodipodi:nodetypes="ccscccssccsccscscccccccsccccccccccccccscscccccsccscccc"
         inkscape:connector-curvature="0"
         id="path4169-7-5-7-8"
         d="m 850.49692,225.90705 c -0.19586,0.0105 -0.22878,0.0256 -0.6875,0.28906 -0.19664,0.11295 -0.39039,0.22234 -0.42969,0.24414 -0.0393,0.0218 -0.13273,0.0754 -0.20703,0.11914 -0.0743,0.0437 -0.15886,0.0941 -0.18946,0.11133 -0.0506,0.0285 -0.31814,0.18111 -1.23242,0.70703 -0.17479,0.10055 -0.33903,0.19604 -0.36523,0.21094 -0.0262,0.0149 -0.187,0.10658 -0.35742,0.20508 -0.17042,0.0985 -0.3369,0.19429 -0.3711,0.21289 -0.10129,0.055 -0.25159,0.21432 -0.30859,0.32812 -0.1052,0.20922 -0.0977,0.0771 -0.0977,2.36914 0,2.02002 9.2e-4,2.14682 0.0449,2.26172 0.0746,0.19489 0.16917,0.31924 0.32032,0.42188 0.0509,0.0345 0.0956,0.0644 0.0996,0.0644 0.004,0 0.0859,0.0448 0.18359,0.10156 0.0978,0.0568 0.18059,0.10352 0.18359,0.10352 0.003,0 0.0519,0.0289 0.10742,0.0625 0.0555,0.0336 0.13258,0.0794 0.17188,0.10156 0.0906,0.0512 0.3746,0.2131 0.4375,0.25 0.0262,0.0154 0.11963,0.0689 0.20703,0.11914 0.0874,0.0502 0.17888,0.10374 0.20508,0.11914 0.0563,0.0331 0.44607,0.25635 0.54883,0.31445 0.0393,0.0222 0.11637,0.068 0.17187,0.10157 0.0555,0.0336 0.10442,0.0605 0.10742,0.0605 0.003,0 0.0643,0.0356 0.13672,0.0781 0.0724,0.0425 0.16383,0.0952 0.20313,0.11719 0.0393,0.022 0.22616,0.12733 0.41406,0.23632 0.40916,0.23729 0.44356,0.25412 0.60352,0.29102 0.11279,0.0262 0.14933,0.0279 0.26367,0.008 0.0892,-0.0157 0.25055,-0.0698 0.28515,-0.0957 0.0167,-0.0125 0.16218,-0.0973 0.30664,-0.17774 0.0471,-0.0262 0.2339,-0.13338 0.41407,-0.23828 0.18017,-0.10489 0.35913,-0.20837 0.39843,-0.23047 0.0631,-0.0355 0.62997,-0.36069 0.75586,-0.43359 0.0897,-0.052 0.36485,-0.21 0.43555,-0.25 0.0389,-0.022 0.10619,-0.0617 0.15039,-0.0879 0.0943,-0.056 0.16537,-0.0958 0.26367,-0.15039 0.0393,-0.0218 0.13274,-0.0753 0.20703,-0.11914 0.0743,-0.0437 0.17456,-0.10261 0.22266,-0.12891 0.0481,-0.0263 0.12382,-0.0704 0.16992,-0.0996 0.046,-0.0292 0.0878,-0.0527 0.0918,-0.0527 0.0294,0 0.19212,-0.12517 0.26172,-0.20117 0.10029,-0.10954 0.16376,-0.24035 0.19726,-0.40039 0.0365,-0.17408 0.0384,-4.10535 0.002,-4.28125 -0.0308,-0.14897 -0.10076,-0.2896 -0.19336,-0.39258 -0.099,-0.11014 -0.15122,-0.14491 -0.59375,-0.39453 -0.0393,-0.0222 -0.15684,-0.0894 -0.26172,-0.15039 -0.15958,-0.0928 -0.93798,-0.54172 -1.09766,-0.63282 -0.0262,-0.0149 -0.13341,-0.0757 -0.23828,-0.13672 -0.10487,-0.061 -0.22242,-0.13044 -0.26172,-0.15234 -0.0393,-0.0219 -0.24337,-0.13716 -0.45312,-0.25781 -0.20975,-0.12064 -0.49025,-0.28122 -0.62305,-0.35742 -0.29727,-0.17061 -0.38539,-0.1992 -0.60351,-0.1875 z"
         style="fill:none;fill-opacity:1;fill-rule:evenodd;stroke:#3c3c3c;stroke-width:0.80000001;stroke-linecap:round;stroke-linejoin:round;stroke-miterlimit:4;stroke-dasharray:none;stroke-dashoffset:0;stroke-opacity:0.39215686" /><path
         sodipodi:nodetypes="ccscccssccsccscscccccccsccccccccccccccscscccccsccscccc"
         inkscape:connector-curvature="0"
         id="path4169-7-5-7"
         d="m 850.49708,225.91349 c -0.19586,0.0105 -0.22878,0.0256 -0.6875,0.28906 -0.19664,0.11295 -0.39039,0.22234 -0.42969,0.24414 -0.0393,0.0218 -0.13273,0.0754 -0.20703,0.11914 -0.0743,0.0437 -0.15886,0.0941 -0.18946,0.11133 -0.0506,0.0285 -0.31814,0.18111 -1.23242,0.70703 -0.17479,0.10055 -0.33903,0.19604 -0.36523,0.21094 -0.0262,0.0149 -0.187,0.10658 -0.35742,0.20508 -0.17042,0.0985 -0.3369,0.19429 -0.3711,0.21289 -0.10129,0.055 -0.25159,0.21432 -0.30859,0.32812 -0.1052,0.20922 -0.0977,0.0771 -0.0977,2.36914 0,2.02002 9.2e-4,2.14682 0.0449,2.26172 0.0746,0.19489 0.16917,0.31924 0.32032,0.42188 0.0509,0.0345 0.0956,0.0644 0.0996,0.0644 0.004,0 0.0859,0.0448 0.18359,0.10156 0.0978,0.0568 0.18059,0.10352 0.18359,0.10352 0.003,0 0.0519,0.0289 0.10742,0.0625 0.0555,0.0336 0.13258,0.0794 0.17188,0.10156 0.0906,0.0512 0.3746,0.2131 0.4375,0.25 0.0262,0.0154 0.11963,0.0689 0.20703,0.11914 0.0874,0.0502 0.17888,0.10374 0.20508,0.11914 0.0563,0.0331 0.44607,0.25635 0.54883,0.31445 0.0393,0.0222 0.11637,0.068 0.17187,0.10157 0.0555,0.0336 0.10442,0.0605 0.10742,0.0605 0.003,0 0.0643,0.0356 0.13672,0.0781 0.0724,0.0425 0.16383,0.0952 0.20313,0.11719 0.0393,0.022 0.22616,0.12733 0.41406,0.23632 0.40916,0.23729 0.44356,0.25412 0.60352,0.29102 0.11279,0.0262 0.14933,0.0279 0.26367,0.008 0.0892,-0.0157 0.25055,-0.0698 0.28515,-0.0957 0.0167,-0.0125 0.16218,-0.0973 0.30664,-0.17774 0.0471,-0.0262 0.2339,-0.13338 0.41407,-0.23828 0.18017,-0.10489 0.35913,-0.20837 0.39843,-0.23047 0.0631,-0.0355 0.62997,-0.36069 0.75586,-0.43359 0.0897,-0.052 0.36485,-0.21 0.43555,-0.25 0.0389,-0.022 0.10619,-0.0617 0.15039,-0.0879 0.0943,-0.056 0.16537,-0.0958 0.26367,-0.15039 0.0393,-0.0218 0.13274,-0.0753 0.20703,-0.11914 0.0743,-0.0437 0.17456,-0.10261 0.22266,-0.12891 0.0481,-0.0263 0.12382,-0.0704 0.16992,-0.0996 0.046,-0.0292 0.0878,-0.0527 0.0918,-0.0527 0.0294,0 0.19212,-0.12517 0.26172,-0.20117 0.10029,-0.10954 0.16376,-0.24035 0.19726,-0.40039 0.0365,-0.17408 0.0384,-4.10535 0.002,-4.28125 -0.0308,-0.14897 -0.10076,-0.2896 -0.19336,-0.39258 -0.099,-0.11014 -0.15122,-0.14491 -0.59375,-0.39453 -0.0393,-0.0222 -0.15684,-0.0894 -0.26172,-0.15039 -0.15958,-0.0928 -0.93798,-0.54172 -1.09766,-0.63282 -0.0262,-0.0149 -0.13341,-0.0757 -0.23828,-0.13672 -0.10487,-0.061 -0.22242,-0.13044 -0.26172,-0.15234 -0.0393,-0.0219 -0.24337,-0.13716 -0.45312,-0.25781 -0.20975,-0.12064 -0.49025,-0.28122 -0.62305,-0.35742 -0.29727,-0.17061 -0.38539,-0.1992 -0.60351,-0.1875 z"
         style="fill:none;fill-opacity:1;fill-rule:evenodd;stroke:#ffffff;stroke-width:0.5;stroke-linecap:round;stroke-linejoin:round;stroke-miterlimit:4;stroke-dasharray:none;stroke-dashoffset:0;stroke-opacity:1" /><path
         sodipodi:nodetypes="ccscccssccsccscscccccccsccccccccccccccscscccccsccscccc"
         inkscape:connector-curvature="0"
         id="path4169-7-5"
         d="m 850.49688,225.90465 c -0.19586,0.0105 -0.22878,0.0256 -0.6875,0.28906 -0.19664,0.11295 -0.39039,0.22234 -0.42969,0.24414 -0.0393,0.0218 -0.13273,0.0754 -0.20703,0.11914 -0.0743,0.0437 -0.15886,0.0941 -0.18946,0.11133 -0.0506,0.0285 -0.31814,0.18111 -1.23242,0.70703 -0.17479,0.10055 -0.33903,0.19604 -0.36523,0.21094 -0.0262,0.0149 -0.187,0.10658 -0.35742,0.20508 -0.17042,0.0985 -0.3369,0.19429 -0.3711,0.21289 -0.10129,0.055 -0.25159,0.21432 -0.30859,0.32812 -0.1052,0.20922 -0.0977,0.0771 -0.0977,2.36914 0,2.02002 9.2e-4,2.14682 0.0449,2.26172 0.0746,0.19489 0.16917,0.31924 0.32032,0.42188 0.0509,0.0345 0.0956,0.0644 0.0996,0.0644 0.004,0 0.0859,0.0448 0.18359,0.10156 0.0978,0.0568 0.18059,0.10352 0.18359,0.10352 0.003,0 0.0519,0.0289 0.10742,0.0625 0.0555,0.0336 0.13258,0.0794 0.17188,0.10156 0.0906,0.0512 0.3746,0.2131 0.4375,0.25 0.0262,0.0154 0.11963,0.0689 0.20703,0.11914 0.0874,0.0502 0.17888,0.10374 0.20508,0.11914 0.0563,0.0331 0.44607,0.25635 0.54883,0.31445 0.0393,0.0222 0.11637,0.068 0.17187,0.10157 0.0555,0.0336 0.10442,0.0605 0.10742,0.0605 0.003,0 0.0643,0.0356 0.13672,0.0781 0.0724,0.0425 0.16383,0.0952 0.20313,0.11719 0.0393,0.022 0.22616,0.12733 0.41406,0.23632 0.40916,0.23729 0.44356,0.25412 0.60352,0.29102 0.11279,0.0262 0.14933,0.0279 0.26367,0.008 0.0892,-0.0157 0.25055,-0.0698 0.28515,-0.0957 0.0167,-0.0125 0.16218,-0.0973 0.30664,-0.17774 0.0471,-0.0262 0.2339,-0.13338 0.41407,-0.23828 0.18017,-0.10489 0.35913,-0.20837 0.39843,-0.23047 0.0631,-0.0355 0.62997,-0.36069 0.75586,-0.43359 0.0897,-0.052 0.36485,-0.21 0.43555,-0.25 0.0389,-0.022 0.10619,-0.0617 0.15039,-0.0879 0.0943,-0.056 0.16537,-0.0958 0.26367,-0.15039 0.0393,-0.0218 0.13274,-0.0753 0.20703,-0.11914 0.0743,-0.0437 0.17456,-0.10261 0.22266,-0.12891 0.0481,-0.0263 0.12382,-0.0704 0.16992,-0.0996 0.046,-0.0292 0.0878,-0.0527 0.0918,-0.0527 0.0294,0 0.19212,-0.12517 0.26172,-0.20117 0.10029,-0.10954 0.16376,-0.24035 0.19726,-0.40039 0.0365,-0.17408 0.0384,-4.10535 0.002,-4.28125 -0.0308,-0.14897 -0.10076,-0.2896 -0.19336,-0.39258 -0.099,-0.11014 -0.15122,-0.14491 -0.59375,-0.39453 -0.0393,-0.0222 -0.15684,-0.0894 -0.26172,-0.15039 -0.15958,-0.0928 -0.93798,-0.54172 -1.09766,-0.63282 -0.0262,-0.0149 -0.13341,-0.0757 -0.23828,-0.13672 -0.10487,-0.061 -0.22242,-0.13044 -0.26172,-0.15234 -0.0393,-0.0219 -0.24337,-0.13716 -0.45312,-0.25781 -0.20975,-0.12064 -0.49025,-0.28122 -0.62305,-0.35742 -0.29727,-0.17061 -0.38539,-0.1992 -0.60351,-0.1875 z"
         style="fill:#9b4f96;fill-opacity:1;fill-rule:evenodd;stroke:none;stroke-width:3;stroke-linecap:round;stroke-linejoin:round;stroke-miterlimit:4;stroke-dasharray:none;stroke-dashoffset:0;stroke-opacity:1" /><path
         sodipodi:nodetypes="cccccccccccccccccccccccccccccccc"
         inkscape:transform-center-y="1.2029797"
         inkscape:transform-center-x="-0.061628969"
         id="path4169-7-58"
         d="m 846.40458,233.17148 c 0.10702,0.16437 0.15609,0.16189 0.61361,0.42743 0.19614,0.11382 0.38775,0.22691 0.42628,0.25005 0.0385,0.0231 0.13166,0.0772 0.20669,0.11972 0.075,0.0425 0.16092,0.0905 0.19114,0.10841 0.05,0.0296 0.31592,0.18497 1.22852,0.7138 0.17447,0.10109 0.33929,0.19558 0.36529,0.21082 0.026,0.0152 0.18581,0.10866 0.35632,0.207 0.17051,0.0983 0.33671,0.19462 0.36992,0.21494 0.0983,0.0602 0.31141,0.11071 0.43846,0.10318 0.23379,-0.0135 0.11562,0.0461 2.10059,-1.09996 1.74938,-1.01001 1.85872,-1.07422 1.93624,-1.16974 0.13148,-0.16205 0.19189,-0.30613 0.2052,-0.48835 0.004,-0.0613 0.008,-0.11499 0.006,-0.11845 -0.002,-0.003 -0.004,-0.0968 -0.004,-0.20978 2.9e-4,-0.11309 -6.4e-4,-0.20815 -0.002,-0.21075 -10e-4,-0.003 -9.2e-4,-0.0594 4.2e-4,-0.12428 10e-4,-0.0649 0.002,-0.15452 0.002,-0.19963 -9.6e-4,-0.10406 -0.003,-0.43096 -0.002,-0.50389 2.3e-4,-0.0304 -1.5e-4,-0.13805 -3.4e-4,-0.23886 -2.3e-4,-0.10079 4e-4,-0.20678 6.4e-4,-0.23717 5.1e-4,-0.0653 -10e-4,-0.51449 -0.002,-0.63253 -4.2e-4,-0.0451 7.1e-4,-0.13478 0.002,-0.19963 10e-4,-0.0649 2.7e-4,-0.12073 -10e-4,-0.12333 -0.001,-0.003 -0.001,-0.0735 -7.2e-4,-0.15745 6.1e-4,-0.0839 5.3e-4,-0.18948 -8e-5,-0.23451 -6e-4,-0.045 -0.003,-0.25953 -0.002,-0.47675 9.2e-4,-0.47299 -0.002,-0.51119 -0.0497,-0.66817 -0.0195,-0.064 -0.0498,-0.0964 -0.0727,-0.13393 l -8.33304,4.82324 c 0.01,0.0164 0.01,0.0308 0.0212,0.0486 z"
         style="fill:#68217a;fill-opacity:1;fill-rule:evenodd;stroke:none;stroke-width:3;stroke-linecap:round;stroke-linejoin:round;stroke-miterlimit:4;stroke-dasharray:none;stroke-dashoffset:0;stroke-opacity:1"
         inkscape:connector-curvature="0" /><path
         sodipodi:nodetypes="cccccccccccccc"
         inkscape:connector-curvature="0"
         id="path4169-7"
         d="m 854.74858,233.08556 c 0.0888,-0.17487 0.0922,-0.21092 0.0934,-0.73992 5e-4,-0.22677 0.003,-0.44926 0.003,-0.49419 7.7e-4,-0.0449 0.001,-0.15265 3.4e-4,-0.23886 -6.9e-4,-0.0862 -0.002,-0.18463 -0.002,-0.21975 6.1e-4,-0.0581 0.002,-0.36607 0.004,-1.42082 3.2e-4,-0.20165 -2.6e-4,-0.39163 -6e-5,-0.42177 1.9e-4,-0.0301 10e-4,-0.21523 10e-4,-0.41207 -9e-5,-0.19684 1.9e-4,-0.38891 10e-4,-0.42783 0.003,-0.10963 -0.066,-0.30047 -0.1319,-0.41068 l -4.16736,2.41534 4.16621,2.41329 c 0.009,-0.0167 0.0218,-0.0238 0.0315,-0.0426 z"
         style="fill:#813787;fill-opacity:1;fill-rule:evenodd;stroke:none;stroke-width:3;stroke-linecap:round;stroke-linejoin:round;stroke-miterlimit:4;stroke-dasharray:none;stroke-dashoffset:0;stroke-opacity:1" /><path
         inkscape:connector-curvature="0"
         id="path4212"
         d="m 850.3625,227.86599 0,0.002 c -0.37745,0.0264 -0.74751,0.12184 -1.07031,0.28711 -1.12178,0.57435 -1.73576,1.75119 -1.55664,2.98437 0.0557,0.38337 0.20966,0.79191 0.41796,1.10938 0.0409,0.0623 0.078,0.11709 0.082,0.12109 0.004,0.004 0.0408,0.051 0.0801,0.10352 0.0983,0.13116 0.34692,0.38018 0.5,0.5 0.43082,0.3372 0.99729,0.5537 1.5586,0.5957 0.11997,0.009 0.4933,-0.007 0.61914,-0.0254 0.0612,-0.009 0.13541,-0.0213 0.16601,-0.0293 0.0306,-0.008 0.0911,-0.0228 0.13477,-0.0332 0.51119,-0.12136 1.03892,-0.44177 1.41992,-0.86328 0.10199,-0.11283 0.23852,-0.29293 0.29492,-0.39063 l 0.041,-0.0723 -0.5918,-0.3418 c -0.325,-0.18752 -0.60183,-0.3437 -0.61523,-0.3457 -0.0142,-0.002 -0.0477,0.032 -0.0801,0.0801 -0.15725,0.23352 -0.43181,0.4406 -0.70703,0.5332 -0.1998,0.0672 -0.25223,0.0743 -0.48438,0.0742 -0.25681,-1.7e-4 -0.3972,-0.0288 -0.59961,-0.1211 -0.15119,-0.0689 -0.24913,-0.13605 -0.39843,-0.27539 -0.25813,-0.24091 -0.41641,-0.57826 -0.44141,-0.9414 -0.0481,-0.69827 0.39904,-1.31409 1.08594,-1.5 0.16689,-0.0454 0.53262,-0.0511 0.6875,-0.01 0.13788,0.037 0.29216,0.0979 0.39453,0.15625 0.17235,0.0982 0.38571,0.29905 0.47851,0.44922 0.0192,0.031 0.0445,0.0548 0.0547,0.0547 0.0102,-1e-4 0.054,-0.0202 0.0977,-0.0449 0.0854,-0.0484 0.36711,-0.20996 0.44531,-0.25586 0.0262,-0.0154 0.11768,-0.0689 0.20508,-0.11914 0.0874,-0.0502 0.18766,-0.10821 0.22266,-0.12891 0.035,-0.0207 0.10595,-0.0604 0.15625,-0.0879 0.0503,-0.0275 0.0898,-0.0546 0.0898,-0.0606 0,-0.006 -0.0387,-0.0709 -0.0879,-0.14453 -0.34931,-0.52215 -0.8833,-0.92885 -1.47852,-1.125 -0.3572,-0.11767 -0.74364,-0.16116 -1.12109,-0.13476 z m 2.67187,2.15234 0,0.18164 -0.18164,0 0,0.36523 0.18164,0 0,0.36329 -0.18164,0 0,0.36523 0.18164,0 0,0.18164 0.36524,0 0,-0.18164 0.36328,0 0,0.18164 0.36523,0 0,-0.18164 0.18165,0 0,-0.36523 -0.18165,0 0,-0.36329 0.18165,0 0,-0.36523 -0.18165,0 0,-0.18164 -0.36523,0 0,0.18164 -0.36328,0 0,-0.18164 -0.36524,0 z m 0.36524,0.54687 0.36328,0 0,0.36329 -0.36328,0 0,-0.36329 z"
         style="fill:#ffffff;fill-opacity:1;fill-rule:evenodd;stroke:none;stroke-width:1px;stroke-linecap:butt;stroke-linejoin:miter;stroke-opacity:1" /></g></g></svg>