<svg xmlns="http://www.w3.org/2000/svg" viewBox="0 0 637 203.8" enable-background="new 0 0 637 203.8"><g fill="#ED1164"><path d="M195.1 26.1h11.4v152.8h-11.4zM74.8 99.2h55.4v10.5h-55.4zM32.4 26.1v152.8h11.3v-142.3h117.7v-10.5z"/></g><g fill="#ED1164"><path d="M547.8 25.5h-90.4v152.8h11.4v-57h.1v-10.5h-.1v-74.8h78.2c27.5 0 46.3 12.7 46.3 36.9v.4c0 22.7-19.2 37.5-47.6 37.5h-35.8v10.5h35.1c31.9 0 59.6-16.6 59.6-48.7v-.4c0-29.5-23.2-46.7-56.8-46.7"/><path d="M391.3 110.9l-53-86h-10.9l-94.4 153.9h11.8l87.9-141.4 45.8 73.5zM408.8 139.1h-12.7l24.7 39.7h12.4z"/></g></svg>