<?xml version="1.0" encoding="utf-8"?>
<!-- Generator: Adobe Illustrator 18.1.1, SVG Export Plug-In . SVG Version: 6.00 Build 0)  -->
<svg version="1.1" id="Layer_1" xmlns="http://www.w3.org/2000/svg" xmlns:xlink="http://www.w3.org/1999/xlink" x="0px" y="0px"
	 viewBox="0 0 318.7 708.9" enable-background="new 0 0 318.7 708.9" xml:space="preserve">
<path fill="#4BA04A" d="M165.6,401.2c-0.4-41.4-0.8-82.8-1.3-124.3c0-2.1,0-4.2,0.1-6.3c-0.6-19.8-0.1-39.6-1-59.4
	c-1.5-35.8,0.7-71.7-1.5-107.6c-0.9-14.9,0.7-29.9-1.1-44.9c-1.3-10.6-1-21.4-1.5-32.1c-0.2-4.2-0.9-8.3-1-12.5c-0.1-2,0.6-4,1-5.9
	c-0.9-2.3-1.8-4.6-3.3-8.2c-3.3,17.7-6.5,24.4-15.9,33.1c-4,3.7-8.4,7-12.5,10.7c-13.8,12.4-26.8,25.5-37.9,40.4
	c-11.9,13.6-22,28.6-31,44.2c-0.7,0.8-1.5,1.5-2,2.4c-5.4,10.3-11.3,20.3-16.1,30.9c-5.3,11.6-9.6,23.6-14.4,35.4
	c-0.4,0.7-0.9,1.4-1.2,2.2c-9.8,27.7-17,56-20.9,85.1c-0.2,0.9-0.3,1.8-0.5,2.7c-0.2,2.1-0.4,4.2-0.6,6.2c-0.3,2.1-0.5,4.2-0.8,6.3
	c-0.2,2.1-0.5,4.2-0.7,6.3c-0.2,2.1-0.4,4.3-0.5,6.4c-0.1,1.8-0.2,3.5-0.3,5.3c0.7,8.2-0.2,16-0.3,24.1c-0.1,8.4-0.4,14.8,0,22.8
	c0.2,3.1,0.1,5.9,0.3,8.9c3.1,36.3,12.4,70.9,27.5,104c25.8,56.3,63.6,103.1,112,141.5c1.8,1.4,3.5,3,5.2,4.5c3.5-3.5,4-8.3,5-12.7
	c3.3-15.6,6-31.2,6.8-47.2c-1.7-0.2-4.1,0.5-3.6-3.2c1.4,0.3,2.6,0.7,3.8,1c0.4-2.6,0.7-5.2,1.1-7.9c0.7-5,1.4-9.9,2.2-14.9
	c0.5-12.6,0.9-25.2,1.4-37.8c0-0.8,0-1.7,0.1-2.5c0.8-8.5,2-17.1,2.3-25.6c0.7-22.5,1-45,1.4-67.5
	C165.7,403.8,165.7,402.5,165.6,401.2z"/>
<path fill="#A7A88A" d="M158.3,553.4c0.7-5,1.4-9.9,2.2-14.9c0.8,8.5,1.7,17.1,2.5,25.6c1.3,13.6,3.7,26.9,9.4,39.4
	c1.5,3.4,4,6.3,6,9.4c-2.5,0.1-3.6,1.8-4.4,3.9c-1.5,4.1-3,8.1-4.4,12.3c-3.5,10.2-6.9,20.5-10.3,30.8c-0.8,2.3-1.9,4.3-4.8,3.9
	c-0.8-4.9-1.4-9.9-2.5-14.8c-2-8.6-4.4-17-6.6-25.5c3.5-3.5,4-8.3,5-12.7c3.3-15.6,6-31.2,6.8-47.2c0.1-0.8,0.1-1.5,0.2-2.3
	C157.6,558.6,158,556,158.3,553.4z"/>
<path fill="#BABAB6" d="M154.4,663.7c3,0.4,4-1.5,4.8-3.9c3.4-10.3,6.8-20.5,10.3-30.8c1.4-4.1,2.9-8.2,4.4-12.3
	c0.8-2,1.9-3.8,4.4-3.9c2.2,1.6,4.4,3.1,6.6,4.7c-2,3.9-4.2,7.8-6,11.8c-3.4,7.6-4.2,15.9-4.4,24.1c-0.4,16-0.3,32.1-0.4,48.1
	c0,2.3,0,4.6,0,7.3c-6.5,0.3-11.7-2.3-16.8-4.2c-1-0.4-1.5-2.8-1.6-4.4c-0.3-7.2-0.2-14.3-0.4-21.5
	C155.3,673.7,154.8,668.7,154.4,663.7z"/>
<path fill="#A7A88A" d="M1.4,305.9c-0.2,2.1-0.4,4.3-0.5,6.4C1,310.1,1.2,308,1.4,305.9z"/>
<path fill="#A7A88A" d="M2.9,293.3c-0.3,2.1-0.5,4.2-0.8,6.3C2.4,297.5,2.7,295.4,2.9,293.3z"/>
<path fill="#419144" d="M281.1,503.9c-0.1-2.2,0.2-4.1,2.5-5C282.8,500.6,281.9,502.2,281.1,503.9z"/>
<path fill="#A7A88A" d="M4.1,284.3c-0.2,0.9-0.3,1.8-0.5,2.7C3.7,286.1,3.9,285.2,4.1,284.3z"/>
<path fill="#419144" d="M283.6,498.9c0.4-0.8,0.7-1.7,1.1-2.5C284.4,497.2,284,498,283.6,498.9z"/>
<path fill="#419144" d="M317.6,375.7c2.2-29.8,1-59.4-4.1-88.8c-2.3-13.2-6.5-26.1-9.8-39.1c-0.5-1.7-0.9-3.4-1.4-5.1
	c-0.3-0.6-0.5-1.2-0.8-1.8c0,0,0.1-0.4,0.1-0.4l-0.3-0.3c-0.8-2.4-1.6-4.7-2.3-7.1c-2.1-6.1-4.2-12.1-6.3-18.2
	c-0.4-1.1-0.9-2.2-1.3-3.3c0,0,0.1-0.3,0.1-0.3l-0.3-0.2c-0.4-1-0.8-2-1.2-3.1c-0.4-1.4-0.7-2.9-1.3-4.2
	c-7.3-15.6-14.2-31.3-22-46.6c-9.3-18.2-20.9-35.2-33.3-51.5c-12.7-16.6-26.7-32.1-41.5-46.8c-10.8-10.7-18.9-23.1-25.7-36.6
	c-2.4-4.7-4.7-9.4-7.1-14.1c-0.4,2-1.1,4-1,5.9c0.1,4.2,0.8,8.3,1,12.5c0.5,10.7,0.2,21.5,1.5,32.1c1.8,15,0.2,29.9,1.1,44.9
	c2.2,35.8,0,71.8,1.5,107.6c0.8,19.8,0.3,39.6,1,59.4c3.1-0.4,6.2-0.8,9.3-1.3c-3.1,0.4-6.2,0.8-9.3,1.3c0,2.1,0,4.2-0.1,6.3
	c0.4,41.4,0.8,82.8,1.3,124.3c0,1.3,0.1,2.5,0.1,3.8c1.2-0.9,2.5-1.7,3.4-2.4c-1,0.7-2.2,1.5-3.4,2.4c-0.4,22.5-0.7,45-1.4,67.5
	c-0.3,8.6-1.5,17.1-2.3,25.6c-0.1,0.8-0.1,1.7-0.1,2.5c-0.5,12.6-0.9,25.2-1.4,37.8c0.8,8.5,1.7,17.1,2.5,25.6
	c1.3,13.6,3.7,26.9,9.4,39.4c1.5,3.4,4,6.3,6,9.4c2.2,1.6,4.4,3.1,6.6,4.7c4.1-3,8.3-5.8,12.2-9c26.9-21.7,49.2-47.6,67.6-76.7
	c5.8-9.1,10.9-18.7,16.3-28c-0.1-2.2,0.2-4.1,2.5-5c0,0,0,0,0,0c0.4-0.8,0.7-1.7,1.1-2.5c0.9-1.9,1.8-3.7,2.7-5.6
	c0.6-1.1,1.1-2.2,1.7-3.3c0.3-0.6,0.5-1.1,0.8-1.7c1.3-3.6,2.6-7.3,3.8-10.9c4.4-5.6,5.9-12.4,7.7-19.1c0.4-1.2,0.8-2.5,1.2-3.7
	c0.9-2.9,1.8-5.9,2.7-8.8c0.4-1.3,0.7-2.6,1.1-3.9c0.4-0.3,0.4-0.6,0.3-1c0.4-1.7,0.9-3.5,1.3-5.2h0l0,0c0,0,0,0-0.1,0l0,0
	c-0.6,0.1-1,0.2-1.4,0.3c-0.2,0.1-0.3,0.1-0.5,0.2c-0.1,0.1-0.3,0.2-0.4,0.3c0.1-0.1,0.2-0.2,0.4-0.3c0.1-0.1,0.3-0.2,0.5-0.2
	c0.4-0.1,0.8-0.2,1.4-0.3c0.3-1.3,0.7-2.6,1-3.9c0.4-0.3,0.4-0.6,0.2-1c0.3-1.4,0.7-2.7,1-4.1c0.3-0.3,0.4-0.7,0.2-1.1
	c0.4-1.7,0.7-3.5,1.1-5.2c0.4-0.3,0.4-0.6,0.2-1c0.3-1.8,0.7-3.6,1-5.4c0.1-0.4,0.1-0.8,0.2-1.2c0.2-0.8,0.4-1.6,0.6-2.5
	c0.2-2,0.5-4,0.7-6c0.2-1,0.4-1.9,0.6-2.9c0.2-2,0.4-4,0.6-6c0.1-0.5,0.2-1,0.3-1.5c0.3-3.4,0.7-6.7,1-10.1c-2.2,1.4-3,1.9-4.7,2.1
	c1.7-0.2,2.5-0.7,4.7-2.1C317,379.4,317.5,377.5,317.6,375.7z M305.2,434.8c0-0.2,0-0.3,0.1-0.5
	C305.3,434.5,305.2,434.6,305.2,434.8z"/>
<path fill="#4BA04A" d="M157.3,561.2c-0.1,0.8-0.1,1.5-0.2,2.3c-1.7-0.2-4.1,0.5-3.6-3.2C154.8,560.6,156,560.9,157.3,561.2z"/>
</svg>
