<?xml version="1.0"?>
<svg xmlns="http://www.w3.org/2000/svg" xmlns:xlink="http://www.w3.org/1999/xlink" version="1.1" id="Capa_1" x="0px" y="0px" viewBox="0 0 346.078 346.078" style="enable-background:new 0 0 346.078 346.078;" xml:space="preserve" width="512px" height="512px" class=""><g transform="matrix(1 0 0 -1 0 346.078)"><g>
	<g>
		<path d="M346.078,184.364v-5.842c0-14.446-11.086-26.135-26.224-28.778    c5.108-5.931,8.324-13.628,8.324-21.821v-5.836c0-17.358-14.852-32.585-31.786-32.585H251.05c-5.722,0-10.985,2.279-15.46,5.967    h-44.65V62.234c0-23.653-41.309-50.301-63.32-50.301h-8.282c-7.172,0-12.483,2.315-15.782,6.874    c-7.256,10.036-1.557,27.322,3.956,44.035c2.882,8.741,5.859,17.775,5.859,23.032l0.018,13.324l-2.84,36.404l-62.813,0.495V315.85    l5.37,0.543c2.763,0.28,67.754,6.814,74.025,7.345l0.597,0.03c0.006,0,0.006,0,0.012,0c2.608,0,4.624-0.973,6.337-3.562    c17.113,9.374,38.916,13.939,56.447,13.939h60.856c7.93,0,15.102-2.202,21.457-5.967h12.262c17.465,0,31.147-13.587,31.147-30.944    v-5.842c0-6.492-2.017-12.256-5.484-16.922h2.56c17.143,0,32.758-16.051,32.758-33.683v-5.842    c0-10.311-5.591-19.828-13.837-25.783C340.595,203.655,346.078,194.603,346.078,184.364z M251.05,101.437h0.328h45.014    c10.388,0,19.852,9.839,19.852,20.651v5.836c0,11.122-9.463,21.248-19.858,21.248h-45.342c-8.891,0-16.97-12.865-18.187-24.154    C234.068,113.991,242.136,101.437,251.05,101.437z M190.522,322.211c-13.384,0-33.731-3.801-49.519-11.964    c-0.155,0.006-0.298,0.03-0.448,0.03h-15.007c-0.137,0.459-0.274,0.913-0.406,1.295c-11.892-1.14-51.07-5.072-65.474-6.516    v-157.12l61.918-0.489l3.717-47.783V85.875c0-7.178-3.139-16.689-6.462-26.761c-3.926-11.91-9.302-28.217-5.615-33.307    c0.931-1.289,2.983-1.939,6.11-1.939h8.282c17.25,0,51.387,23.319,51.387,38.367v106.377c0,15.192-9.821,26.905-23.426,29.047    c7.011,0.817,13.097,2.44,17.889,5.388c10.603-7.369,17.471-19.905,17.471-34.435v-61.208h35.145    c-2.464,4.642-4.171,9.78-4.905,14.881h-0.406v5.448h0.4c1.169,8.258,4.785,16.606,10.03,22.883    c-11.773,4.087-19.989,16.206-21.922,28.098h-0.442v5.448h0.436c1.504,9.428,6.838,18.963,14.422,24.828    c-7.59,6.194-12.924,16.236-14.434,26.159h-0.424v5.448h0.418c1.701,11.468,8.348,23.39,17.459,29.572    c-6.092,5.597-10.197,13.551-11.474,21.421h-0.436v5.448h0.424c1.444,9.523,6.51,19.183,13.968,25.168h-38.677V322.211z     M304.31,297.234c0,10.663-8.443,19.01-19.219,19.01h-39.692c-9.237,0-17.262-11.444-18.497-21.904    c1.187-9.702,8.765-19.864,18.503-19.864h39.698c9.249,0,19.207,5.299,19.207,16.922V297.234z M334.145,234.957v5.842    c0,10.967-10.317,21.743-20.824,21.743h-28.217h-39.698h-5.645c-8.998,0-17.525-13.342-18.82-24.649    c1.265-10.8,9.613-23.086,18.82-23.086h73.56C324.222,214.807,334.145,224.408,334.145,234.957z M334.145,184.364    c0,11.075-10.77,18.509-20.824,18.509h-73.56c-9.392,0-17.549-11.188-18.814-21.421c1.229-9.744,9.099-20.347,18.814-20.347    h11.289h45.342h16.934c10.239,0,20.824,6.516,20.824,17.417v5.842H334.145z" data-original="#010002" class="active-path" data-old_color="#FF4700" fill="#FF3F00"/>
		<path d="M0,316.244h41.768V137.238H0V316.244z M20.222,281.147c7.262,0,13.169,5.907,13.169,13.169    c0,7.262-5.907,13.163-13.169,13.163s-13.175-5.901-13.175-13.163C7.047,287.054,12.96,281.147,20.222,281.147z" data-original="#010002" class="active-path" data-old_color="#FF4700" fill="#FF3F00"/>
		<circle cx="20.222" cy="294.316" r="7.524" data-original="#010002" class="active-path" data-old_color="#FF4700" fill="#FF3F00"/>
	</g>
</g></g> </svg>
