<?xml version="1.0" encoding="UTF-8" standalone="no"?>
<!-- Created with Inkscape (http://www.inkscape.org/) -->

<svg
   xmlns:dc="http://purl.org/dc/elements/1.1/"
   xmlns:cc="http://creativecommons.org/ns#"
   xmlns:rdf="http://www.w3.org/1999/02/22-rdf-syntax-ns#"
   xmlns:svg="http://www.w3.org/2000/svg"
   xmlns="http://www.w3.org/2000/svg"
   xmlns:sodipodi="http://sodipodi.sourceforge.net/DTD/sodipodi-0.dtd"
   xmlns:inkscape="http://www.inkscape.org/namespaces/inkscape"
   width="2589.2378"
   height="3046.8516"
   id="svg3068"
   version="1.1"
   inkscape:version="0.48.4 r9939"
   sodipodi:docname="New document 7">
  <defs
     id="defs3070" />
  <sodipodi:namedview
     id="base"
     pagecolor="#ffffff"
     bordercolor="#666666"
     borderopacity="1.0"
     inkscape:pageopacity="0.0"
     inkscape:pageshadow="2"
     inkscape:zoom="0.24748737"
     inkscape:cx="1315.3331"
     inkscape:cy="1634.8543"
     inkscape:document-units="px"
     inkscape:current-layer="layer1"
     showgrid="false"
     fit-margin-top="0"
     fit-margin-left="0"
     fit-margin-right="0"
     fit-margin-bottom="0"
     inkscape:window-width="1290"
     inkscape:window-height="1013"
     inkscape:window-x="112"
     inkscape:window-y="12"
     inkscape:window-maximized="0" />
  <metadata
     id="metadata3073">
    <rdf:RDF>
      <cc:Work
         rdf:about="">
        <dc:format>image/svg+xml</dc:format>
        <dc:type
           rdf:resource="http://purl.org/dc/dcmitype/StillImage" />
        <dc:title></dc:title>
      </cc:Work>
    </rdf:RDF>
  </metadata>
  <g
     inkscape:label="Layer 1"
     inkscape:groupmode="layer"
     id="layer1"
     transform="translate(940.33313,879.63501)">
    <path
       style="fill:#000000"
       d="m 1257.3943,2166.2687 c -11.6798,-2.328 -16.4753,-4.2978 -22.7194,-9.332 -3.4207,-2.7578 -8.5957,-6.679 -11.5,-8.7137 -8.2166,-5.7564 -17.6093,-14.3851 -21.4003,-19.6597 -3.5192,-4.8963 -5.6666,-9.2659 -12.3834,-25.1983 -2.0868,-4.95 -4.9191,-11.475 -6.2939,-14.5 -1.3748,-3.025 -3.7232,-8.425 -5.2187,-12 -2.808,-6.7124 -15.7957,-36.2941 -20.1962,-46 -3.9261,-8.6597 -13.2281,-29.7212 -17.0039,-38.5 -6.3576,-14.7815 -12.0485,-27.914 -17.767,-41 -3.1245,-7.15 -8.975,-20.65 -13.0011,-30 -4.026,-9.35 -9.2054,-21.275 -11.5097,-26.5 -2.3042,-5.225 -5.9569,-13.775 -8.1169,-19 -2.1601,-5.225 -4.3959,-10.3247 -4.9686,-11.3327 -1.4174,-2.4951 -42.3047,-96.1486 -63.3772,-145.1673 -2.3643,-5.5 -12.9517,-30.025 -23.52753,-54.5 -17.5801,-40.6845 -32.3554,-74.9897 -60.5137,-140.5 -5.6737,-13.2 -14.67,-33.9 -19.9918,-46 -8.7999,-20.0084 -31.9889,-72.9742 -40.0596,-91.5 -1.7971,-4.125 -9.7682,-22.35 -17.7136,-40.5 -7.9454,-18.15 -29.4103,-67.2 -47.6998,-109 -33.9365,-77.5606 -36.6872,-83.8279 -53.441,-121.7642 -14.5773,-33.0079 -30.7545,-69.6999 -54.1131,-122.73581 -6.4193,-14.575 -12.4878,-28.3 -13.4857,-30.5 -0.9979,-2.2 -4.2672,-9.625 -7.2652,-16.5 -2.998,-6.875 -6.3724,-14.525 -7.4985,-17 -2.155,-4.7358 -13.4998,-30.4306 -32.2314,-73 -6.1713,-14.025 -17.2,-39 -24.5083,-55.5 -12.6802,-28.6285 -19.7132,-44.5793 -42.99,-97.5 -5.6849,-12.925 -17.166,-39.025 -25.5134,-58 -8.3474,-18.975 -19.9232,-45.3 -25.724,-58.5 -5.8008,-13.2 -14.7052,-33.45 -19.7875,-45 -9.1166,-20.7183 -25.1283,-57.1773 -36.6708,-83.5 -6.1633,-14.0555 -24.0192,-55.7015 -34.8884,-81.3717 -3.4633,-8.1795 -7.0299,-15.7769 -7.9257,-16.8831 -2.5733,-3.1779 -5.2782,-0.8802 -10.6126,9.0149 -2.5913,4.8069 -6.584,11.8899 -8.8725,15.7399 -2.2885,3.85 -7.0028,12.4 -10.4763,19 -3.4735,6.6 -9.3504,17.625 -13.0598,24.5 -3.7093,6.875 -11.233,21.05 -16.7193,31.5 -5.4862,10.45 -15.9404,30.25 -23.2315,44 -20.7947,39.2159 -21.4051,40.3689 -27.5292,52 -3.1854,6.05 -7.0096,13.25 -8.4982,16 -1.4885,2.75 -5.7567,10.85 -9.4848,18 -3.7281,7.15 -8.4617,16.15 -10.5191,20 -2.0575,3.85 -5.5445,10.375 -7.749,14.5 -8.1286,15.2098 -23.2216,44.0271 -32.7343,62.5 -5.3813,10.45 -12.1446,23.5 -15.0295,29 -6.4836,12.3608 -29.863,57.5166 -42.9734,83 -5.3762,10.45 -11.0049,21.25 -12.5083,24 -3.3464,6.1211 -17.5627,33.8181 -38.4962,75 -8.6668,17.05 -22.3915,44.05 -30.4993,60 -8.107803,15.95 -22.281503,43.85001 -31.497203,62.00001 -18.35758,36.1549 -34.07488,66.8784 -44.50698,87 -3.7069,7.15 -11.8057,22.9 -17.9972,35 -6.1914996,12.1 -14.29149957,27.85 -17.9999996,35 -3.7085,7.15 -11.8085004,22.9 -18.0000004,35 -6.1915,12.1 -14.2903,27.85 -17.9972,35 -3.7069,7.15 -11.5842,22.45 -17.505,34 -5.9208,11.55 -14.2448,27.75 -18.4978,36 -4.253,8.25 -12.577,24.45 -18.4978,36 -5.920797,11.55 -13.798097,26.85 -17.504997,34 -3.7069,7.15 -11.8068,22.9 -17.9998,35 -6.1929,12.1 -14.7434,28.75 -19.0011,37 -4.2576,8.25 -12.1323,23.55 -17.4991,34 -5.3669,10.45 -13.4653,26.2 -17.9964,35 -4.5312,8.8 -12.63,24.55 -17.9973,35 -5.36741,10.45 -13.02549,25.3 -17.018,33 -3.99252,7.7 -15.01176,29.075 -24.48722,47.5 -18.31618,35.6158 -29.75419,57.7974 -41.51005,80.5 -3.98721,7.7 -14.78052,28.625 -23.98515,46.5 -9.20462,17.875 -20.2237,39.25 -24.48684,47.5 -4.26313,8.25 -12.28083,23.775 -17.81711,34.5 -5.53627,10.725 -14.6307,28.275 -20.20984,39 -9.18623,17.659 -41.98929,83.5889 -41.98929,84.393 0,0.1831 -3.09351,6.8071 -6.87446,14.72 -20.26743,42.4162 -59.97608,125.8626 -72.70753,152.7925 l -5.86485,12.4055 -87.02658,-0.6574 c -47.86462,-0.3616 -120.32658,-0.9196 -161.02658,-1.2401 -40.7,-0.3204 -88.49938,-0.6656 -106.22085,-0.7671 -39.8598,-0.2281 -37.76562,0.8085 -29.58693,-14.6464 3.05611,-5.775 18.38256,-34.575 34.05878,-64 15.67621,-29.425 34.13043,-64.075 41.00936,-77 6.87893,-12.925 14.42414,-27.1 16.76714,-31.5 5.25387,-9.8664 31.45932,-59.6954 39.96898,-76 21.06856,-40.3675 30.30881,-58.0405 34.50784,-66 2.61136,-4.95 10.26693,-19.575 17.01238,-32.5 17.71986,-33.9532 54.53522,-104.3032 66.46124,-127 5.63544,-10.725 14.42062,-27.6 19.52261,-37.5 5.10199,-9.9 11.17787,-21.6 13.50194,-26 2.32408,-4.4 8.17019,-15.65 12.99136,-25 4.82117,-9.35 11.34548,-21.95 14.49845,-28 3.15298,-6.05 9.0047,-17.3 13.00382,-25 3.99911,-7.7 9.62489,-18.5 12.50173,-24 2.87683,-5.5 9.40397,-18.1 14.50475,-28 5.10078,-9.9 11.63249,-22.5 14.51493,-28 2.88243,-5.5 11.19535,-21.475 18.47316,-35.5 22.87573,-44.0837 27.19656,-52.3628 30.00876,-57.5 1.50541,-2.75 7.35566,-14 13.00055,-25 5.64489,-11 11.495,-22.25 13.00024,-25 1.50523,-2.75 6.45617,-12.2 11.00207,-21 9.62819,-18.6383 18.31732,-35.3236 24.99677,-48 2.60825,-4.95 8.45964,-16.2 13.00308,-25 4.54345,-8.8 9.49117,-18.25 10.99495,-21 1.50378,-2.75 8.02861,-15.35 14.49962,-28 6.47101,-12.65 14.34617,-27.95 17.50035,-34 3.15418,-6.05 10.35324,-20 15.99791,-31 5.64468,-11 12.84804,-24.95 16.00747,-31 3.15942,-6.05 10.58629,-20.45 16.50415,-32 5.91785,-11.55 13.11623,-25.5 15.99638,-31.00001 2.88016,-5.5 10.30988,-19.9 16.5105,-32 6.20062,-12.1 17.44455,-33.925 24.98651,-48.5 7.54196,-14.575 18.78599,-36.4 24.98672,-48.5 6.20074,-12.1 12.95817,-25.15 15.01651,-29 2.05837,-3.85 8.80747,-16.9 14.99807,-29 6.1906,-12.1 12.4875,-24.25 13.993,-27 1.5056,-2.75 8.4869,-16.25 15.514,-30 7.0272,-13.75 13.096,-25.45 13.4861,-26 0.3902,-0.55 6.9092,-13.15 14.4867,-28 7.5775,-14.85 15.0085,-29.25 16.5133,-32 1.5048,-2.75 7.1337,-13.55 12.5088,-24 5.375097,-10.45 12.137697,-23.5 15.028097,-29 2.8903,-5.5 12.0011,-23.05 20.2463,-39 8.2451,-15.95 17.4554,-33.725 20.4673,-39.5 3.0119,-5.775 12.7938,-24.675 21.7376,-42 35.9894004,-69.7149 43.9777,-85.1588 53.5348,-103.5 5.6039,-10.7546 20.1883,-38.9982 46.73228,-90.5 4.9607,-9.625 11.8254,-22.9 15.2548,-29.5 3.4294,-6.6 10.3131,-19.875 15.297203,-29.5 4.9841,-9.625 13.6094,-26.275 19.1674,-37 5.558,-10.725 21.6063,-42.4209 35.6629,-70.4354 14.0566,-28.0145 27.7608,-54.200699 30.4538,-58.191599 4.9465,-7.3304 5.487,-10.373 1.8425,-10.373 -1.9513,0 -22.1048,7.7781 -34.9997,13.5079 -4.1644,1.8504 -8.8894,3.6919 -10.5,4.0921 -1.6107,0.4002 -7.6535,3.0882 -13.4285,5.9733 -18.3078,9.1464 -25.944,12.430199 -49.000003,21.071899 -12.375,4.6383 -24.64458,9.3312 -27.26568,10.4286 -10.1029,4.2299 -52.6081996,12.8525 -88.7343,18.0007 l -35.5,5.0589 -38.499997,-0.5667 c -43.0113,-0.6331 -79.1963,-2.0609 -92,-3.6301 -4.675,-0.5729 -13.225,-2.1755 -19,-3.5612 -5.775,-1.3858 -12.075,-2.3141 -14,-2.0631 -6.03015,0.7866 -18.7136,-1.258 -27.27418,-4.3965 -4.5242,-1.6587 -10.47582,-3.6064 -13.22582,-4.3281 -2.75,-0.7217 -14.675,-4.2646 -26.5,-7.873 -11.825,-3.6084 -27.8,-8.4155 -35.5,-10.6824 -22.74728,-6.696899 -48.23059,-15.955499 -59.85544,-21.746799 -5.97048,-2.9744 -10.69548,-5.5663 -10.5,-5.7598 0.19549,-0.1936 19.97346,-16.0285 43.95104,-35.1888 40.54846,-32.4019 44.53251,-35.3237003 57,-41.8013003 7.37242,-3.8304 18.3544,-9.5805 24.4044,-12.7779997 29.30926,-15.4901 44.80085,-22.66461 73.66546,-34.11603 40.73604,-16.16119 48.01224,-18.96034 55.83454,-21.47949 13.0286,-4.19584 51.396797,-15.16208 53.048497,-15.16208 0.9335,0 3.7533,-0.90948 6.2662,-2.02106 3.5931,-1.58938 63.999,-14.33053 94.6853004,-19.971521 9.8963996,-1.81923 37.6055996,-5.45354 71.4999796,-9.37787 20.0992,-2.32711 80.748303,-3.093 96.500003,-1.21862 22.289,2.65229 32.0018,2.88338 36,0.85655 4.033,-2.04446 5.0966,-5.94494 2.6424,-9.69056 -0.8267,-1.26159 -2.2306,-5.84501 -3.1198,-10.18536 -4.1279,-20.14751 -9.7827,-36.93009 -20.3484,-60.39156 -5.8207,-12.925 -12.1786,-26.01615 -14.1287,-29.09144 -1.95,-3.07529 -6.4705,-10.42962 -10.0455,-16.34295 -3.575,-5.91333 -12.0125,-17.41393 -18.75,-25.55689 l -12.25,-14.80539 0.057,-5.85167 c 0.096,-9.86147 2.6879,-37.64357 3.8585,-41.35166 0.6077,-1.925 1.5362,-9.35 2.0633,-16.5 1.0604,-14.38408 5.3529,-36.64181 10.0284,-52 1.6744,-5.5 5.7941,-15.4 9.1548,-22 26.7739,-52.57948 26.9161,-52.8339 36.8615,-65.97558 5.4212,-7.16343 12.2643,-15.49942 15.2069,-18.52442 2.9426,-3.025 7.1223,-7.975 9.2881,-11 2.1659,-3.025 7.2104,-8.95901 11.2099,-13.18668 3.9996,-4.22767 7.2719,-8.15403 7.2719,-8.72523 0,-0.57121 3.7125,-5.46957 8.25,-10.88525 7.709,-9.20101 14.3999,-15.74352 21.3302,-20.85733 2.7024,-1.99404 2.7992,-2.27955 1.3002,-3.83391 -1.4819,-1.5366 -1.9922,-1.55026 -6,-0.16058 -2.4092,0.83536 -6.1804,2.40416 -8.3804,3.48621 -2.2,1.08205 -6.7,3.15945 -10,4.61644 -8.7403,3.85896 -32.323,19.5566 -44.8545,29.85705 -5.97,4.90711 -13.4949,10.67587 -16.7222,12.81947 -3.2272,2.1436 -6.3864,4.90374 -7.0204,6.13363 -0.634,1.2299 -9.81,11.01118 -20.391,21.73618 -19.2211,19.48248 -25.9327,27.68257 -46.8019,57.1807 -8.293003,11.72208 -10.729803,16.16026 -17.020703,31 -8.4159,19.85277 -14.0734,38.84887 -15.9134,53.4321 l -1.2762,10.1128 -22.49998,-15.47759 c -19.3637,-13.32014 -25.6363,-17.01055 -44.9999996,-26.47521 -12.375,-6.04869 -24.3000004,-11.79079 -26.5000004,-12.76022 -5.8915,-2.59607 -46.9035,-21.79515 -62.5,-29.2583 l -13.5,-6.45995 -5.618597,-13.39717 c -5.8119,-13.85791 -6.1204,-15.18076 -11.9862,-51.39716 -1.0689,-6.6 -2.1807,-17.81017 -2.4706,-24.91148 -0.2899,-7.10132 -0.9287,-13.66183 -1.4195,-14.57893 -0.8697,-1.62514 -2.3324,-50.96665 -2.3718,-80.00959 -0.017,-12.9178 0.3351,-15.99858 3.2314,-28.23369 1.7881,-7.55352 4.575,-17.65044 6.1932,-22.43758 3.3395,-9.87949 3.5972,-12.54017 1.3919,-14.37038 -1.9413,-1.61116 -2.3042,-1.24374 -9.919,10.04165 -4.9584,7.34844 -10.8317,18.67423 -19.9654,38.5 -5.2093,11.30733 -9.1828,23.9973 -16.1258,51.5 l -3.6605,14.5 0.01,23.5 c 0.01,12.925 0.4022,37.9 0.8823,55.5 0.48,17.6 0.7723,32.16558 0.6496,32.36796 -0.1227,0.20237 -3.9575,-0.33583 -8.5218,-1.19602 -43.15095,-8.13222 -37.6687,-7.53389 -71.2987,-7.78143 -29.76242,-0.21908 -32.03664,-0.0978 -56.9666,3.03789 l -25.96661,3.26607 -2.30799,-2.84724 c -1.2694,-1.56597 -10.23589,-12.89539 -19.92553,-25.17647 l -17.61753,-22.32924 -11.45765,-26.17076 c -18.64988,-42.59874 -19.56422,-45.13195 -26.63283,-73.7872 -8.67949,-35.18557 -10.90819,-51.38674 -8.59908,-62.50967 0.99827,-4.80862 0.94111,-5.83517 -0.3995,-7.17579 -1.41923,-1.41922 -1.73602,-1.40912 -3.41335,0.10884 -4.07115,3.68434 -5.94127,9.93019 -7.84267,26.19306 -2.29553,19.63397 -2.07558,39.7855 0.61988,56.79225 1.06417,6.71426 3.08078,19.63275 4.48135,28.70775 4.00082,25.92334 8.26601,46.91913 13.71229,67.5 4.35795,16.46818 5.88063,20.61196 11.42696,31.09693 l 6.39902,12.09693 -27.75508,11.68497 c -24.46246,10.29856 -30.42519,13.28444 -50.25558,25.16561 -12.375,7.41435 -26.775,16.64505 -32,20.51267 -21.57694,15.97155 -21.30017,15.79955 -24.4524,15.19685 -4.01633,-0.76792 -40.9984,-37.21875 -52.00093,-51.25396 -12.5502,-16.00946 -20.82786,-29.43384 -24.39831,-39.56821 -3.36324,-9.54621 -6.13777,-24.55943 -6.14434,-33.24753 -0.002,-2.92366 -0.46985,-6.18616 -1.0392,-7.25 -1.19073,-2.22489 -4.21304,-2.54503 -5.81411,-0.61585 -3.00951,3.62624 -6.12644,40.83607 -4.2873,51.18159 3.8577,21.70021 6.59625,31.24001 14.29468,49.79586 2.69162,6.48772 6.52517,16.16272 8.519,21.5 4.89184,13.09492 11.36421,22.47633 25.08628,36.36143 l 11.52042,11.65728 -20.39189,22.27052 c -11.21555,12.24878 -21.99742,24.103 -23.95973,26.34271 -3.53222,4.03156 -35.9722,49.13117 -41.23163,57.3222 -1.50091,2.3375 -2.88759,4.25 -3.08152,4.25 -1.25773,0 -27.74425,-18.29167 -40.83863,-28.20328 -37.99059,-28.75645 -67.6808,-56.65644 -75.41614,-70.86881 -2.71988,-4.9973 -4.34172,-6.25752 -6.82618,-5.30414 -2.65631,1.01932 -2.68129,4.19402 -0.11673,14.83591 1.74987,7.26125 4.52569,14.63303 8.95495,23.78176 3.53045,7.29221 7.59765,16.07554 9.03823,19.51851 3.19779,7.64274 8.02243,15.6041 20.14368,33.24005 7.81659,11.37283 12.32464,16.51886 28.6102,32.65914 21.47617,21.28458 22.72422,22.3962 31.50024,28.0566 10.5999,6.83677 10.48597,4.14464 1.22626,28.97635 -4.47268,11.99435 -8.76921,23.83291 -9.54785,26.30791 -3.85861,12.26502 -7.04417,79.181081 -4.41306,92.700781 0.5137,2.63957 1.13315,6.93432 1.37657,9.54392 0.51105,5.4789 2.49879,4.5035 -18.81056,9.2309 -6.6,1.4642 -15.375,3.517 -19.5,4.5619 -9.87796,2.502 -29.57707,4.3545997 -38.98599,3.6663 -9.37853,-0.6861 -23.57621,-3.9644 -31.70055,-7.3198 -7.3318,-3.0281 -9.69857,-2.8542 -10.11723,0.7434 -0.25465,2.1882 0.97197,3.6744 7.58571,9.1906997 8.29505,6.9187 24.62317,16.7256 35.3573,21.2361003 3.49842,1.4701 11.22,5.1358 17.15907,8.1462 13.64787,6.9176 32.70136,13.8817 43.70169,15.973 4.675,0.8888 9.28209,2.3454 10.23797,3.237 1.74047,1.6234 4.97193,12.638 6.18723,21.0896 0.63298,4.402 3.67221,14.4377 9.84228,32.5 1.69092,4.95 5.47248,13.784799 8.40346,19.632799 2.93098,5.848 5.32906,10.9229 5.32906,11.2774 0,0.3545 2.66721,5.2448 5.92714,10.8672 3.25993,5.6224 6.07243,11.1104 6.25,12.1955 0.27008,1.6504 -2.63381,3.4488 -17.76185,11 -9.9466,4.9649 -22.7716,10.7643 -28.5,12.8876 -10.07609,3.7348 -10.69211,3.8374 -18.91529,3.1509 -14.84145,-1.2389 -16.15911,-1.1769 -17.38021,0.8177 -0.94698,1.5468 -0.51152,2.3603 2.82178,5.2715 4.50784,3.9371 10.9953,7.7471 15.77717,9.2657 12.76698,4.0545 58.43757,5.5774 75.16918,2.5065 7.54848,-1.3854 9.00533,-1.4215 9.66699,-0.2392 0.42848,0.7657 4.23693,6.0287 8.46322,11.6956 8.12964,10.9009 23.96257,28.4283 39.88265,44.151 9.3495,9.2337 9.59831,9.5979 9.56433,14 -0.0778,10.0816 -2.69882,19.8373 -8.53984,31.7862 -4.94293,10.1118 -6.76338,12.7395 -13.17057,19.0108 -4.08916,4.0025 -10.76931,9.7433 -14.84477,12.7572 -7.61184,5.6292 -9.15706,8.4602 -5.64402,10.3403 1.8933,1.0133 12.42203,0.1022 20.45548,-1.77 17.11987,-3.9899 46.05246,-19.9164 59.07649,-32.5199 l 4.79789,-4.6429 19.20211,10.4312 c 10.56117,5.7371 29.77712,15.4503 42.70212,21.5848 12.925,6.1345 23.9041,11.5551 24.39801,12.0459 0.52953,0.5261 -2.54788,9.0174 -7.5,20.6942 -7.38679,17.4176 -8.97799,20.374 -13.21466,24.552 -2.64917,2.6125 -5.47131,4.75 -6.27144,4.75 -0.80013,0 -1.97495,1.1416 -2.61069,2.5369 -0.95035,2.0858 -0.86055,2.8323 0.50492,4.1978 2.65479,2.6548 15.08652,0.168 25.09626,-5.0202 10.10999,-5.2402 25.84458,-20.7145 33.16736,-32.6187 3.30429,-5.3716 5.42493,-7.8759 6.43024,-7.5936 0.825,0.2316 10.21983,2.0085 20.8774,3.9486 17.65698,3.2143 21.60789,3.5816 44.5,4.1367 23.04216,0.5587 26.78598,0.4007 45.20896,-1.9083 19.43067,-2.4353 20.75275,-2.7493 40.5,-9.6214 11.2275,-3.9071 22.21364,-7.9416 24.41364,-8.9656 2.2,-1.0239 10.75,-4.8805 19,-8.5701 22.3845,-10.0111 26.2992,-12.1398 47,-25.5571 19.199,-12.4438 44.5842,-31.989 71.933497,-55.3847 8.2135,-7.0261 15.8635,-13.353 17,-14.0597 24.5505,-15.2665 34.9237,-21.4968 35.2493,-21.1712 0.8218,0.8218 -19.972,44.9101 -30.7276,65.1506 -13.4066,25.2292 -14.1986,26.4688 -33.647,52.6616 -14.126097,19.0249 -16.349997,21.5228 -28.074797,31.5323 -29.2374,24.9602 -30.7709,26.1332 -41.2334,31.54 -5.775,2.9844 -14.775,7.8775 -20,10.8736 -5.225,2.9961 -13.8698,7.3578 -19.2107,9.6926 -5.34092,2.3349 -15.46592,7.105 -22.50002,10.6002 -10.64672,5.2904 -17.89888,7.8707 -43.28928,15.4022 l -30.5,9.0472 -31.5,3.5497 c -23.68947,2.6695 -41.41814,3.9743 -71.5,5.2623 l -40,1.7126 -25,-3.7692 c -61.70166,-9.3028 -59.62034,-8.891 -83.54515,-16.5309 -37.49123,-11.9722 -30.80536,-9.1742 -81.95485,-34.298 -31.8739,-15.6559 -36.19044,-18.0662 -42.2595,-23.5972 -3.71773,-3.388 -8.23133,-6.7751 -10.03022,-7.5267 -1.7989,-0.7516 -4.60712,-2.676 -6.2405,-4.2763 -1.63338,-1.6003 -4.99478,-4.4736 -7.46978,-6.3851 -2.475,-1.9114 -6.03153,-4.9413 -7.9034,-6.7331 -1.87187,-1.7918 -3.94783,-3.2578 -4.61325,-3.2578 -3.34556,0 -21.99106,-14.5583 -48.93618,-38.2092 l -29.95282,-26.2908 -25.28131,-33.5 -25.2813,-33.5 -28.21087,-50 c -43.43539,-76.983499 -40.41413,-71.1258 -43.25795,-83.869699 -9.25,-41.4518 -13.5832,-63.2615 -13.05068,-65.686 0.32939,-1.4997 -0.08,-5.3632 -0.90978,-8.5855 -1.98067,-7.6918003 -8.51183,-53.49016 -9.178,-64.3588 -0.28654,-4.675 -0.67776,-13.45 -0.86936,-19.5 -0.19161,-6.05 -0.82488,-24.275 -1.40727,-40.500001 -0.5824,-16.225 -1.30781,-44.23971 -1.61204,-62.25492 -0.52844,-31.29234 -0.44059,-33.54122 1.96738,-50.36466 1.38629,-9.68536 2.80622,-18.07201 3.1554,-18.637 0.59906,-0.96929 1.16895,-5.29002 3.19764,-24.24342 0.93114,-8.69939 2.7633,-16.95628 10.20713,-46 7.07552,-27.60666 9.20308,-33.57515 31.72546,-89 4.57244,-11.25223 12.58295,-27.48122 23.69245,-48 9.2314,-17.05 19.06943,-35.275 21.8623,-40.5 2.79286,-5.225 7.82351,-13.325 11.17922,-18 8.7957,-12.25371 23.58342,-33.27303 35.19121,-50.02093 12.8549,-18.54726 23.62789,-32.85882 67.60734,-89.81407 16.1067,-20.85886 16.08784,-20.83946 50.13854,-51.57695 4.92792,-4.44843 16.40292,-14.84013 25.5,-23.09266 9.09708,-8.25254 20.40952,-18.4835 25.13876,-22.73547 6.8499,-6.15861 14.27301,-11.05318 36.5,-24.06701 15.34576,-8.98489 31.05138,-18.05874 34.90138,-20.16412 3.85,-2.10538 10.89618,-6.24981 15.65818,-9.20984 7.82186,-4.86203 13.85892,-7.12765 62.5,-23.45534 l 53.84182,-18.07347 62.5,-13.94321 c 61.63315,-13.74984 63.06866,-14.01775 103.5,-19.31683 75.5034,-9.89575 69.6601,-9.43084 122.5,-9.74642 l 47.499997,-0.28368 30.5,5.28151 c 35.3296,6.11781 51.0310004,9.2196 81.6093,16.12175 34.6741,7.82667 40.22938,9.43498 67.89068,19.65474 14.300003,5.2833 32.525003,12.00659 40.500003,14.94064 35.1959,12.94881 36.5777,13.59301 112,52.21537 7.975,4.08385 22.2707,12.68136 31.7682,19.10559 9.4975,6.42422 25.2786,17.0804 35.0691,23.6804 16.9892,11.45277 19.5535,13.65225 56.2318,48.23141 35.2554,33.23767 39.5464,37.64584 51.9309,53.34936 7.425,9.41488 18.225,23.08155 24,30.37039 9.6016,12.11849 34.0757,48.71051 79.317,118.58932 9.4507,14.59726 22.5603,34.84726 29.1326,45 6.5723,10.15274 13.9428,22.05952 16.379,26.45952 11.5162,20.79963 18.4743,34.50116 20.2205,39.81744 1.0509,3.19959 2.7561,7.02459 3.7892,8.5 1.0332,1.47541 3.3341,5.3211 5.1133,8.54597 1.7791,3.22488 4.707,7.79219 6.5064,10.14958 1.7995,2.35738 4.699,7.81885 6.4435,12.13658 3.8485,9.52558 6.7389,16.28977 11.4926,26.89485 1.9833,4.42442 3.6059,8.38661 3.6059,8.80486 0,0.41825 0.8582,2.64826 1.9072,4.95558 6.8414,15.04854 14.0279,32.79692 14.6557,36.19514 0.9082,4.91543 3.8732,12.03345 5.4076,12.98177 0.6248,0.38616 2.1643,3.02324 3.4211,5.86017 1.2567,2.83693 2.9877,5.73824 3.8465,6.44735 0.8588,0.70911 2.5413,3.85911 3.7389,7 5.1725,13.56637 18.386,36.51689 24.8894,43.23068 4.0609,4.19215 10.9872,7.05413 19.7775,8.17214 4.8709,0.6195 10.2061,1.0751 11.8561,1.01244 11.8041,-0.44827 12.6568,-0.37261 14.489,1.28554 1.7389,1.57363 4.647,1.67875 34.2057,1.2364 19.685,-0.29458 33.2819,-0.1051 34.8053,0.48505 3.3768,1.30816 17.7099,2.14632 33.5,1.959 9.5217,-0.11296 15.5418,0.37067 22.5,1.80754 5.225,1.07898 11.3,1.93997 13.5,1.91331 4.279,-0.0518 19.723,3.29565 25.5,5.52714 1.925,0.74357 6.8342,1.86444 10.9092,2.49083 4.0751,0.62639 11.7251,2.8996 17,5.05159 5.275,2.15199 13.8658,5.67324 19.0908,7.82501 5.225,2.15177 12.425,4.90467 16,6.11755 3.575,1.21288 9.875,3.70723 14,5.54301 4.125,1.83577 9.525,3.8893 12,4.56339 5.354,1.45822 11.8622,4.02791 21.82303,8.61658 4.0277,1.85543 7.8042,3.37351 8.3922,3.37351 3.2045,0 16.5042,4.82032 24.7848,8.982971 22.9556,11.53975 71.1872,40.64783 79.7848,48.15053 1.8066,1.57658 3.9096,2.8665 4.6733,2.8665 0.7636,0 2.6605,1.04111 4.2152,2.31359 1.5547,1.27247 5.5267,3.81324 8.8267,5.64615 10.8322,6.01648 22.8813,14.66556 29.8974,21.46096 3.7936,3.6742 8.2936,7.3943 10,8.2669 3.4186,1.7479997 7.5642,4.8269997 18.1026,13.4446997 20.9364,17.1206003 27.9229,23.2260003 37.0001,32.3338003 22.7951,22.8721 53.3381,54.4318 58.0999,60.0339 2.805,3.3 6.4402,7.574999 8.0783,9.499999 1.6381,1.925 4.9576,6.2 7.3768,9.5 2.4191,3.3 6.2381,8.25 8.4866,11 8.249,10.0889 14.0706,19.3104 20.5173,32.5 13.0483,26.6958 20.9181,44.5944 21.91,49.8308 0.5555,2.9319 1.8556,6.5319 2.8892,8 1.0337,1.4681 2.2013,3.7055 2.5948,4.972 0.3934,1.2665 2.1744,4.8843 3.9579,8.0395 1.7834,3.1552 5.6366,11.5689 8.5627,18.6972 2.926,7.1283 7.0748,17.2355 9.2194,22.4605 2.1446,5.225 5.6979,15.8 7.8961,23.5 2.1983,7.7 4.7013,16.25 5.5623,19 8.5957,27.4547 18.9108,66.9205 22.8181,87.3029 2.4986,13.0334 5.4913,28.4221 6.6504,34.1971 1.1592,5.775 2.6936,13.65 3.4098,17.5 0.7162,3.85 2.2086,11.275 3.3164,16.5 1.1078,5.225 2.9605,15.35 4.1171,22.5 1.1567,7.15 2.7626,17.05 3.5688,22 0.8061,4.95 1.8867,11.925 2.4012,15.5 0.5146,3.575 2.5564,15.5 4.5374,26.5 1.981,11 4.9117,27.65 6.5128,37 7.8343,45.7525 11.1862,65.2165 13.5185,78.5 2.5501,14.5247 8.1364,52.4844 19.4254,132 5.0646,35.6728 14.7928,103.2048 24.057,167 1.1581,7.975 3.1981,21.25 4.5334,29.5 2.2457,13.87471 9.0005,56.93691 13.5684,86.50001 1.0623,6.875 2.814,17.45 3.8926,23.5 1.0787,6.05 4.0178,23.15 6.5316,38 2.5137,14.85 5.4362,31.95 6.4944,38 1.0583,6.05 3.9426,22.925 6.4096,37.5 2.4669,14.575 6.7755,40 9.5746,56.5 10.2235,60.2653 11.9059,70.2969 14.4238,86 1.411,8.8 4.8367,29.95 7.6126,47 2.7759,17.05 8.1889,50.575 12.0289,74.5 3.8399,23.925 8.0827,50.25 9.4283,58.5 3.5288,21.636 8.1232,50.0271 10.4781,64.75 5.038,31.4973 6.3284,39.5177 9.5328,59.25 1.8756,11.55 4.1219,28.2 4.9916,37 0.8697,8.8 2.2427,22.3 3.0511,30 3.3722,32.123 7.5562,76.9965 9.9299,106.5 1.3938,17.325 2.7554,33.525 3.0257,36 2.538,23.2412 4.4901,59.9458 4.9728,93.5 1.377,95.7178 1.3875,114.961 0.071,129.5 -0.7222,7.975 -1.3631,14.5685 -1.4242,14.6521 -0.061,0.084 -2.2075,-0.4788 -4.7699,-1.25 -2.5624,-0.7711 -5.5999,-1.4049 -6.75,-1.4083 -1.1501,0 -3.38,-0.6783 -4.9554,-1.5 -1.5754,-0.8216 -3.4392,-1.4938 -4.1419,-1.4938 -0.7026,0 -3.5298,-2.025 -6.2826,-4.5 -2.7528,-2.475 -5.6713,-4.5 -6.4857,-4.5 -0.8143,0 -2.0408,-0.675 -2.7255,-1.5 -0.6847,-0.825 -1.7722,-1.5 -2.4167,-1.5 -0.6445,0 -3.1021,-1.8 -5.4614,-4 -2.3593,-2.2 -4.8926,-4 -5.6295,-4 -0.7369,0 -5.3117,-4.3218 -10.1661,-9.6039 -4.8545,-5.2822 -11.7513,-12.5694 -15.3263,-16.1938 -6.2513,-6.3378 -7.8129,-8.3513 -9.851,-12.7023 -0.5152,-1.1 -2.0988,-3.0808 -3.519,-4.4018 -2.973,-2.7654 -19.63,-36.0398 -19.63,-39.2134 0,-1.1635 -1.502,-5.3261 -3.3377,-9.2501 -1.8358,-3.9241 -4.5445,-11.8684 -6.0194,-17.654 -4.7138,-18.4909 -19.9837,-99.1689 -21.6677,-114.4807 -0.5444,-4.95 -1.2082,-10.125 -1.4752,-11.5 -0.4376,-2.2541 -1.6914,-12.9815 -3.0972,-26.5 -0.286,-2.75 -0.9744,-7.925 -1.5299,-11.5 -0.5555,-3.575 -1.8654,-13.925 -2.911,-23 -4.0387,-35.0547 -6.0704,-48.5774 -7.8877,-52.5 -1.0192,-2.2 -2.3972,-5.7161 -3.0622,-7.8135 -1.9091,-6.0217 -10.5195,-18.0725 -17.3031,-24.2169 -8.3717,-7.5828 -21.5864,-14.0818 -32.7089,-16.0862 -9.563,-1.7233 -25.6027,-1.1995 -32.1301,1.0494 -8.1534,2.809 -19.4626,10.1374 -26.3699,17.0876 -8.4475,8.5 -13.7527,17.2601 -16.9445,27.9796 -2.6035,8.7435 -7.6037,36.8559 -7.5741,42.583 0.01,1.9707 1.3686,7.7833 3.0186,12.917 1.65,5.1337 3,9.877 3,10.5407 0,1.9987 8.1135,19.8097 10.0032,21.9593 0.967,1.1 3.8747,6.275 6.4616,11.5 2.5869,5.225 5.7262,10.625 6.9762,12 2.2444,2.4688 10.7043,15.1514 13.3394,19.9978 0.7469,1.3737 1.9258,3.1737 2.6196,4 0.6939,0.8262 2.5269,3.7522 4.0734,6.5022 1.5465,2.75 6.0102,8.15 9.9192,12 7.2121,7.1031 11.0627,11.5808 32.2483,37.5 6.5185,7.975 16.466,19.2496 22.1055,25.0548 5.6395,5.8051 10.2536,11.021 10.2536,11.591 0,1.1736 8.3636,9.7103 15.8384,16.1663 2.7459,2.3716 5.7577,5.9716 6.6928,8 7.7291,16.7656 16.9767,34.4324 19.7431,37.7173 4.7421,5.631 7.8321,12.0239 9.1694,18.9706 1.6346,8.4905 10.7603,24.346 18.6928,32.4779 7.7596,7.9547 34.124,26.0221 37.9721,26.0221 2.3735,0 19.3167,7.2207 21.4559,9.144 1.1354,1.0208 2.4074,1.856 2.8265,1.856 0.4192,0 4.4402,1.5174 8.9356,3.3721 4.4954,1.8546 10.6484,3.911 13.6734,4.5696 4.5031,0.9805 8.7623,2.4341 10.8414,3.6999 0.1878,0.1143 -1.7615,6.4292 -4.3316,14.0331 -4.0989,12.1266 -5.1704,14.2861 -8.7201,17.5753 l -4.0469,3.75 -31.1214,0.1133 c -17.1168,0.062 -35.3964,0.2302 -40.6214,0.3731 -5.225,0.1429 -71.6,0.5823 -147.5,0.9766 -75.9,0.3943 -139.575,0.7889 -141.5,0.8769 -1.925,0.088 -5.975,-0.3332 -9,-0.9362 z m -78,-1276.29181 c 0,-0.4885 -1.1616,-4.876 -2.5814,-9.75 -1.4197,-4.8741 -3.8514,-13.5869 -5.4036,-19.3619 -1.5523,-5.775 -4.0398,-14.325 -5.5279,-19 -1.4881,-4.675 -3.078,-10.3 -3.5331,-12.5 -0.4551,-2.2 -1.9321,-6.925 -3.2823,-10.5 l -2.4548,-6.5 -7.8584,-0.6821 c -20.6187,-1.7898 -47.6822,-9.9569 -58.3585,-17.6112 -5.8624,-4.203 -19.0816,-18.3215 -23.6012,-25.2067 -2.3467,-3.575 -5.598,-8.3292 -7.225,-10.5649 -1.627,-2.2357 -4.3618,-6.7357 -6.0774,-10 -6.4124,-12.2013 -11.2598,-21.0115 -12.894,-23.4351 -2.5148,-3.7296 -8.1312,-20.2721 -10.3552,-30.5 -4.7932,-22.0442 -5.7539,-46.0153 -2.3844,-59.5 1.3729,-5.4948 7.3557,-18.8332 10.9891,-24.5 14.879,-23.2058 14.7846,-23.0749 22.7633,-31.5532 2.3566,-2.5042 5.5141,-5.4875 7.0165,-6.6295 l 2.7317,-2.0764 -3.8524,-9.3704 c -3.674,-8.9365 -8.546,-20.1689 -13.728,-31.6501 -1.3107,-2.9038 -2.383,-5.5005 -2.383,-5.7704 0,-0.2699 -1.8,-4.2974 -4,-8.95 -2.2,-4.6526 -4,-8.7032 -4,-9.0013 0,-0.9466 -7.8883,-17.4987 -8.3394,-17.4987 -0.404,0 -6.2801,2.1471 -23.1606,8.4627 -3.85,1.4404 -8.35,3.2346 -10,3.987 -1.65,0.7524 -5.81553,2.5037 -9.25663,3.8918 -3.4412,1.3881 -7.4912,3.482 -9,4.6531 -4.2988,3.3365 -8.9948,7.1723 -19.1609,15.651 -5.1796,4.3199 -11.3177,9.4294 -13.6402,11.3544 -2.3225,1.925 -5.0264,5.3 -6.0088,7.5 -0.9823,2.2 -2.8844,6.475 -4.2269,9.5 -1.3424,3.025 -3.5765,7.9686 -4.9646,10.9859 -5.191,11.2837 -8.1033,53.3184 -5.2267,75.4409 4.2548,32.7224 4.4937,34.0717 8.3334,47.0732 5.2118,17.6471 5.9489,19.4536 14.4486,35.4058 4.2769,8.0268 8.8846,16.7097 10.2394,19.2952 1.3548,2.5856 10.7315,14.1847 20.837,25.7758 19.86893,22.7897 17.07373,20.4194 49.62633,42.0825 7.15,4.7582 15.925,10.6018 19.5,12.9858 11.7223,7.8171 27.9054,18.4039 32.2439,21.0935 2.3408,1.4513 11.4561,7.1028 20.2561,12.5589 8.8,5.4561 17.575,10.6436 19.5,11.5277 1.925,0.8841 11.6,5.2761 21.5,9.76 9.9,4.4839 20.7,9.4547 24,11.0463 6.2733,3.0255 8.5,3.5705 8.5,2.0804 z m -43.2914,-132.6756 c 1.2148,-0.7855 2.703,-3.1175 3.3072,-5.1823 1.0363,-3.541 0.3544,-5.8245 -12.0197,-40.254 -7.215,-20.075 -14.6183,-40.775 -16.4517,-46 -1.8335,-5.225 -3.831,-10.7668 -4.439,-12.3151 -0.608,-1.5483 -1.1054,-3.7705 -1.1054,-4.9381 0,-1.1677 -1.0125,-3.6103 -2.25,-5.4281 -1.9601,-2.8792 -2.806,-3.3059 -6.5657,-3.3119 -5.8927,-0.01 -7.5453,1.0957 -12.0836,8.08 -4.4182,6.7995 -5.8278,12.8479 -6.582,28.2433 -0.4634,9.4594 -0.1848,11.7744 2.9691,24.6699 1.6251,6.6444 9.9926,25 11.3965,25 0.4277,0 1.398,1.2375 2.1561,2.75 0.7581,1.5125 3.7591,5.7635 6.669,9.4467 2.9098,3.6831 5.2906,7.156 5.2906,7.7176 0,1.7282 10.6298,9.1557 16.7256,11.6868 5.9787,2.4824 8.9476,2.4448 12.983,-0.1648 z"
       id="path3055"
       inkscape:connector-curvature="0" />
  </g>
</svg>
