<?xml version="1.0" encoding="UTF-8" standalone="no"?>
<svg
   xmlns:dc="http://purl.org/dc/elements/1.1/"
   xmlns:cc="http://creativecommons.org/ns#"
   xmlns:rdf="http://www.w3.org/1999/02/22-rdf-syntax-ns#"
   xmlns:svg="http://www.w3.org/2000/svg"
   xmlns="http://www.w3.org/2000/svg"
   xmlns:sodipodi="http://sodipodi.sourceforge.net/DTD/sodipodi-0.dtd"
   xmlns:inkscape="http://www.inkscape.org/namespaces/inkscape"
   xml:space="preserve"
   width="20.519823"
   height="2.6864097"
   style="fill-rule:evenodd;image-rendering:optimizeQuality;shape-rendering:geometricPrecision;text-rendering:geometricPrecision"
   viewBox="0 0 339.3043 209.4128"
   id="svg2"
   sodipodi:version="0.32"
   inkscape:version="0.91 r13725"
   sodipodi:docname="deco-left.svg"
   version="1.0"><metadata
     id="metadata24"><rdf:RDF><cc:Work
         rdf:about=""><dc:format>image/svg+xml</dc:format><dc:type
           rdf:resource="http://purl.org/dc/dcmitype/StillImage" /><dc:title></dc:title></cc:Work></rdf:RDF></metadata><sodipodi:namedview
     inkscape:window-height="1056"
     inkscape:window-width="1873"
     inkscape:pageshadow="2"
     inkscape:pageopacity="0.0"
     guidetolerance="10.0"
     gridtolerance="10.0"
     objecttolerance="10.0"
     borderopacity="1.0"
     bordercolor="#666666"
     pagecolor="#ffffff"
     id="base"
     width="500px"
     height="150px"
     inkscape:zoom="16.212187"
     inkscape:cx="42.320414"
     inkscape:cy="-6.2680801"
     inkscape:window-x="47"
     inkscape:window-y="24"
     inkscape:current-layer="g11"
     showgrid="false"
     fit-margin-top="0"
     fit-margin-left="0"
     fit-margin-right="0"
     fit-margin-bottom="0"
     inkscape:window-maximized="1" /><defs
     id="defs4"><style
       type="text/css"
       id="style6">

    .fil0 {fill:#1F1A17}

  </style></defs><g
     transform="matrix(0.78927739,0,0,0.78927739,-2028.4042,-1791.3473)"
     style="fill-rule:evenodd"
     id="Ebene_x0020_1"><g
       id="g9"><g
         id="g11"><path
           class="fil0"
           d="m 3788.65,2477.22 c -1.1378,-0.2087 -124.323,-53.8189 -155.634,-63.9016 -282.752,-76.1811 -660.508,58.5866 -918.795,98.0669 -66.2087,10.1339 -134.319,15.3228 -204.083,20.1575 -39.9803,2.7638 -80.4882,5.6024 -123.831,0.7717 -111.193,-12.4016 -243.642,-20.8819 -355.941,-62.9213 -78.5827,-29.4094 -160.256,-68.9961 -224.953,-124.988 -34.6654,-29.9685 -36.5551,-39.6417 -32.0669,-53.9055 11.2795,-35.8346 70.9016,-20.2874 94.1654,7.059 32.5315,38.2244 20.1299,46.2126 61.4685,82.1575 27,23.5236 56.878,40.6339 134.996,73.2992 52.1142,21.7717 133.587,22.6535 184.386,22.6457 89.7677,-0.02 221.78,-13.7362 301.169,-29.7165 32.3307,-6.5079 29.2795,-13.3504 504.087,-88.9764 158.52,-25.2205 320.079,-54.5 492.783,-15.937 22.1417,-0.937 211.043,78.1654 234.098,111.606 33.6102,28.4646 9.2756,24.7953 8.1496,24.5827 l 0,10e-5 z"
           id="path13"
           style="fill:#1f1a17"
           inkscape:connector-curvature="0" /></g><g
         id="g17" /></g></g></svg>