<?xml version="1.0" standalone="no"?>
<!DOCTYPE svg PUBLIC "-//W3C//DTD SVG 20010904//EN"
 "http://www.w3.org/TR/2001/REC-SVG-20010904/DTD/svg10.dtd">
<svg version="1.0" xmlns="http://www.w3.org/2000/svg"
 width="2000.000000pt" height="2000.000000pt" viewBox="0 0 2000.000000 2000.000000"
 preserveAspectRatio="xMidYMid meet">
<metadata>
Created by potrace 1.11, written by Peter Selinger 2001-2013
</metadata>
<g transform="translate(0.000000,2000.000000) scale(0.100000,-0.100000)"
fill="#000000" stroke="none">
<path d="M0 10000 l0 -10000 10000 0 10000 0 0 10000 0 10000 -10000 0 -10000
0 0 -10000z m6343 5428 c42 -20 100 -58 128 -85 71 -66 1284 -1462 1284 -1477
0 -21 -276 -316 -289 -309 -8 5 -1248 937 -1322 994 -6 5 -269 -188 -675 -497
l-664 -506 -55 59 c-30 33 -96 105 -146 159 l-92 99 605 695 c332 382 629 721
660 753 120 122 211 159 379 154 103 -3 116 -6 187 -39z m8537 -2322 c542 -62
940 -173 1323 -369 1146 -585 1717 -1843 1717 -3782 0 -2319 -808 -3662 -2443
-4065 -537 -132 -1230 -166 -1837 -89 -1467 184 -2378 992 -2743 2434 -133
525 -187 1019 -187 1715 0 612 34 995 131 1473 206 1022 671 1763 1381 2203
462 285 1009 443 1733 498 130 10 797 -3 925 -18z m-6989 -3156 c676 -1719
1334 -3390 1461 -3714 l232 -589 66 -42 c184 -119 404 -197 730 -260 74 -14
136 -27 137 -29 3 -3 -39 -358 -53 -448 l-6 -38 -1734 0 c-1398 0 -1734 2
-1734 13 0 21 69 469 73 473 1 2 86 15 187 29 238 34 416 73 584 129 127 42
320 130 363 165 20 16 13 35 -351 988 l-371 973 -1482 0 -1481 0 -15 -42 c-8
-24 -162 -459 -342 -968 -180 -509 -330 -932 -332 -941 -3 -11 20 -27 87 -58
173 -80 374 -144 605 -191 78 -16 489 -80 516 -80 3 0 -9 -109 -25 -242 l-31
-243 -1549 -3 -1548 -2 6 32 c3 18 20 128 37 243 17 116 32 211 34 213 2 2 46
10 100 18 197 29 395 79 541 135 97 37 253 118 314 163 l45 33 1350 3706 1350
3707 503 -3 503 -2 1230 -3125z"/>
<path d="M14125 12468 c-659 -27 -1165 -247 -1488 -648 -356 -442 -539 -1056
-617 -2075 -18 -226 -24 -1076 -11 -1360 42 -872 166 -1486 393 -1939 144
-288 355 -537 584 -689 366 -244 811 -348 1419 -334 446 11 746 75 1050 227
433 215 737 596 925 1160 169 507 245 1083 257 1965 12 867 -43 1501 -177
2042 -298 1204 -1009 1707 -2335 1651z"/>
<path d="M5346 9949 c-323 -913 -586 -1663 -583 -1665 2 -2 555 -3 1229 -2
l1225 3 -636 1662 c-350 914 -638 1663 -641 1663 -3 0 -270 -747 -594 -1661z"/>
</g>
</svg>
